<svg xmlns="http://www.w3.org/2000/svg" viewBox="0 0 356.66 653.36"><defs><style>.cls-1{fill:#191817;}.cls-2{fill:#fcc200;}</style></defs><g id="Layer_1" data-name="Layer 1"><path class="cls-1" d="M286.54,531.55a6.15,6.15,0,0,0-2.34.07c-2,.16-3.93.93-5.92-.18-.95-.53-2.19.27-2.64,1.54a39.36,39.36,0,0,1-3.24,7c-.59,1-.36,2.21-.77,3.21-1.6,3.91-2.22,8.11-3.71,12a95.28,95.28,0,0,0-3,9.6c-1,3.87-1.61,7.81-2.26,11.75a28.61,28.61,0,0,1-2,7.41,4.29,4.29,0,0,0-.42,1.11c-.64,5-2.09,9.91-2.8,14.91-.26,1.81-1.17,3.65-.29,5.54-.93,1.74-.36,3.67-.72,5.5a68.43,68.43,0,0,0-1.1,8.2,89.37,89.37,0,0,0-.1,10.61c0,1.05.88,1.43,1.18,2.23a75.91,75.91,0,0,0,4.79,10.6,43.26,43.26,0,0,1,3,6,15.38,15.38,0,0,0,2.73,4.35c1,1.12.8,2.65,1.82,3.63s1.11,2.59,1.72,3.81c1.88,3.78,3,7.86,5.29,11.53,2.52,4.07,5.45,7.42,9.64,9.68.32.18.5.63.82.83.64.41,1,1,.55,1.59a1.74,1.74,0,0,1-2.23.65c-2.82-1.15-4.92-3.39-7.48-4.93-.74-.45-.67-1.44-1.15-2.15a52,52,0,0,1-3.24-4.74c-1.32-2.49-2.29-5.17-3.77-7.62a20.79,20.79,0,0,1-2.62-5.91,15.09,15.09,0,0,0-2.85-5.77c-1.26-1.71-1.36-4-3.16-5.47-.6-.48-.35-1.65-.87-2.4-2.2-3.18-3.06-7.12-5.69-10.07-.13-.14-.09-.44-.12-.66-.4-2.48-1.86-4.46-3.23-6.42a27.3,27.3,0,0,1-2-4,85.47,85.47,0,0,1-4-8.66c-1.5-4.25-4.23-8.08-4.55-12.76a4.55,4.55,0,0,0-.8-2,25.05,25.05,0,0,1-2.29-6.45c-.35-1.28-.25-2.7-1.43-3.64.2-2.59-1.38-4.72-2-7.12-.8-3.26-1.83-6.53-4.7-9.06-2.47-2.18-4.69-4.76-7.08-7.06s-4-4.92-7.18-6.12c-1.33-.5-1.87-2.27-2.94-3.33a15.21,15.21,0,0,0-2.5-2.1c-2-1.26-4-2.39-5.35-4.5a3,3,0,0,0-2.58-1.8,1.15,1.15,0,0,1-.8-.47c-2.29-3.15-5.93-4.81-8.41-7.78-1.39-1.68-3.43-2.73-5.2-4a72.08,72.08,0,0,1-6.66-5.31c-1.8-1.62-3.88-2.92-5.77-4.45-1.63-1.34-3.35-2.64-5-3.79-2.37-1.6-4.13-3.88-6.61-5.25-.86-.48-1.15-1.68-2.05-1.87-1.52-.31-2.3-1.52-3.41-2.33s-2.42-1.78-3.7-2.55a23.62,23.62,0,0,1-3.76-2.39c-1.43-1.29-3.46-1.73-4.53-3.48-.57-.94-1.81-1.34-2.7-1.75-2-.91-3.73-2.27-5.67-3.28a65.26,65.26,0,0,1-11.22-6.83c-2.1-1.7-4.66-2.09-6.8-3.5-.9-.59-2-.72-2.91-1.46-1.07-.9-1.86-.76-2.46.5s-1.92,1.35-2.7,2.19c-2.4,2.6-5.83,2.81-8.82,4.07a10,10,0,0,1-6.66.63c-1.51-.4-3.12-.46-4.52-1.37a4.07,4.07,0,0,0-2-.64,4.33,4.33,0,0,1-3.06-1.3c-1.28-1.38-3.31-1.74-4.57-3.24a42.65,42.65,0,0,0-4.81-5.14c-2-1.68-3-4-4.54-5.95-.77-.94-.75-2.22-1.15-3.33-.62-1.74-1.64-3.32-1.67-5.33s-.14-3.89.67-5.71,1.17-3.8,3-5c.52-.33.18-.7-.07-1.17-.63-1.25-1.83-1.83-2.82-2.62a2.83,2.83,0,0,1-.92-1.29c-.3-.76.29-1,.65-1.35.51-.55.76-.12,1.13.23,1.15,1.05,2.39,2,3.52,3.1.66.63,1.19.73,1.8,0s.69-1,0-1.95c-1.32-1.9-3.39-3.46-3.5-6.1,1.34-.51,2,.31,2.48,1.21.72-.12.86-.54.83-.92a1.31,1.31,0,0,1,1.21-1.5c.58-.06,1.12.64,1.36,1.21a22.64,22.64,0,0,1,.63,2.52c.2.67,0,1.46.66,2.13,1.69-.57,3.46-1.13,4.6-2.7.67-.92,1.72-.76,2.58-1.08,1.27-.46,2.64-.64,3.56-1.81.56-.7,1.57-.77,2.29-1,2.82-.91,5.72-1.61,8.55-2.57a1.59,1.59,0,0,1,.68.05,27.54,27.54,0,0,1,13,5.65c1.67,1.23,3.33,2.47,4.17,4.38,1.37,3.12,2.93,6.24,2.47,9.83a3.72,3.72,0,0,0,.13,1.66,3.94,3.94,0,0,1,0,2.56c-.37,1.15-.85,2.23-.32,3.45a.59.59,0,0,1,0,.47c-1.12,2.19-1.08,4.67-1.68,7a80,80,0,0,1-2.8,7.51c.27.45.81.24,1.05.48,2.33,2.37,5.85,2.26,8.46,4.08.48.34,1.06.65,1.55,1a60.17,60.17,0,0,0,9.9,6,23,23,0,0,1,6,3.69c1.57,1.48,3.7,2.27,5.48,3.56,3,2.19,6.06,4.42,9.15,6.51,3.32,2.24,6.36,4.82,9.48,7.29,1.81,1.42,3.93,2.54,5.38,4.38.69.87,2.24.52,2.44,1.91,2.35,1.1,3.95,3.17,6,4.64,1,.73,1.79,1.89,2.78,2.34,1.66.76,2.69,2.16,4.14,3.08a30.92,30.92,0,0,1,7.62,6.25c1.34,1.65,3.37,2.49,5,3.84,1.31,1.1,2.84,1.91,3.74,3.48.7,1.22,2.09,1.67,3.14,2.51,2.08,1.67,3.93,3.58,6.13,5.14,1.72,1.22,3.12,3,4.81,4.34a63,63,0,0,1,5.78,5.77c1.27,1.33,2.47,2.73,3.78,4a.68.68,0,0,0,.25-1.05,7.53,7.53,0,0,1-1.45-3.82c-.09-1.61-1.18-2.75-1.56-4.26-.82-3.31-2.3-6.45-3.35-9.72q-2-6.18-3.67-12.47c-1.14-4.26-2.19-8.54-3.33-12.79a39,39,0,0,0-1.68-5.06c-2.13-5.11-3.67-10.43-5.34-15.7-.68-2.14-.8-4.49-2.15-6.41-.06-3.6-2-6.64-2.92-10-.3-1,0-2.27-.55-3.26-1.8-3.36-2.12-7.13-3.13-10.71-.77-2.71-1.83-5.36-2.51-8.1a56.71,56.71,0,0,0-2.23-7c-.78-2-1.34-4.07-2.13-6.05-1.18-2.95-3.35-5.24-5.54-7.48a32.15,32.15,0,0,1-5.09-7.24,19.42,19.42,0,0,0-4-5.18c-1.08-1-1.87-2.1-2.88-3.08-5.87-5.69-11.64-11.46-17.61-17a70.7,70.7,0,0,0-8.33-7.14c-.81-.56-1.27-1.54-2.1-2.19-1.46-1.14-1.86-1.33-3.31-.44a7.73,7.73,0,0,1-2.88.78,77.69,77.69,0,0,1-11,1.2,11.81,11.81,0,0,1-4.82-.65,12.34,12.34,0,0,0-4.85-.71,7.93,7.93,0,0,1-4-.38.64.64,0,0,0-.47-.05c-2.65.82-4.93-.62-7.11-1.54-3.94-1.68-8-3.09-11.75-5.21a27.66,27.66,0,0,0-6.44-2.7c-1.27-.35-1.6-1.94-3-2.06-.18,0-.35-.44-.51-.43-2.29.13-3.74-1.66-5.44-2.66s-3.31-1.66-4.93-2.49A39.13,39.13,0,0,1,72.66,386c-2.24-1.55-4.77-2.54-6.88-4.45-1.63-1.47-3.42-2.95-5.25-4.3a53.9,53.9,0,0,1-4.13-3.63c-2.58-2.39-5.21-4.74-8.46-6.18-.87-.39-.56-1.24-1.16-1.66-3.41-2.4-5.32-6.35-8.89-8.6-.37-.23-.52-.79-.78-1.18a4.14,4.14,0,0,0-.81-1.16c-3-2.22-5.15-5.41-8.08-7.76-.73-.59-1.52-1.11-2.25-1.65-2.67-2-4.64-4.55-6.88-6.92-1.5-1.58-2.83-3.29-4.36-4.84-1.32-1.34-2.08-3.09-3.66-4.31-1.18-.91-.3-2.88,1.27-2.92a39.44,39.44,0,0,0,8-.85c3.69-.83,7.47-.14,11.18-.78a5.76,5.76,0,0,1,2.07.38c2,.42,4.16.07,6.17.48,4.14.85,8.41.19,12.47,1.18,1.92.46,3.8,1.21,5.76,1.59,3.46.68,6.62,2.33,10.24,2.64,2.11.18,4.25.93,6.44,1.09.45,0,.65.44,1,.57.61.22,1.25.95,1.62.88,1.74-.33,2.84,1,4.25,1.36s2.74,1.13,4.16,1.47c2.61.62,4.93,1.95,7.44,2.82a11.64,11.64,0,0,0,3.48.8c2.09,0,3.54,1.65,5.5,2a6.3,6.3,0,0,1,3.64,1.79c1,1,2.37.52,3.44,1.39a29.51,29.51,0,0,0,5.29,3.14c1.58.78,2.65,2.17,4.14,3.09,2.74,1.69,4.93,4.15,7.5,6.12,1.2.92,2.13,2.28,3.36,3.28a22.68,22.68,0,0,1,5.22,6.5c1,1.91,1.42,4.26,3.44,5.57a1.31,1.31,0,0,1,.52,1c.11,1.68,1.28,2.88,1.89,4.32.73,1.73,1.75,3.36,2.29,5.12,1.19,3.89,3.25,7.52,3.61,11.67a9.14,9.14,0,0,0,.58,2.07,7.79,7.79,0,0,1,.54,3.59,3,3,0,0,0,1.37,2.81c2.8,2.1,5.47,4.37,8.32,6.4.81.58.85,1.45,1.48,2.07a74.47,74.47,0,0,0,6.06,5.57,34.46,34.46,0,0,1,3.46,3.48c4.13,4.27,8.55,8.23,12.36,12.86a85.24,85.24,0,0,1,6.57,9.36c1,1.65,2.53,2.85,3.65,4.44-1-1.3-.56-2.89-.87-4.3-.72-3.32-2.26-6.4-2.68-9.77-.33-2.56-1.65-4.84-1.87-7.43a4.8,4.8,0,0,0-1.26-3.25c-.63-.62-.63-2-.7-2.84-.24-3-1.91-5.38-2.5-8.13a19.9,19.9,0,0,1-.39-3.56c-.08-2.5-1.27-4.69-1.71-7.08a10.47,10.47,0,0,1-.47-2.29,13.52,13.52,0,0,0-1.87-7c-.14-.27-.37-.66-.28-.87.8-1.75-.43-3.11-.82-4.64a38.68,38.68,0,0,1-1.51-6.54c-.17-2.41-1.38-4.47-1.75-6.8-.28-1.79-1.27-3.48-.83-5.4a.69.69,0,0,0-.08-.46c-1.11-2.06-.85-4.42-1.41-6.6-.75-3-.35-6.18-2-9-.41-.69.35-1.32.16-2.06-.76-2.78-.54-5.77-1.86-8.46a8,8,0,0,1-.28-2.81,6,6,0,0,0-.1-1.42,24.28,24.28,0,0,1-1-5.94c-.09-1.3-.39-2.59-.46-3.95s-.73-2.76-.68-4.17c.09-2.68-.95-5.11-1.51-7.64A30.77,30.77,0,0,0,158,305.5c-.93-1.46-1.14-3.26-1.93-4.83a11.75,11.75,0,0,0-1.3-2.48c-1.56-1.91-2.09-4.38-3.35-6.45-1.85-3.05-2.49-6.68-4.82-9.56a15.87,15.87,0,0,1-1.59-3.52,41,41,0,0,0-3.75-6.88,88.7,88.7,0,0,1-4.79-8c-1.76-3.32-3.35-6.73-5.26-10a43.64,43.64,0,0,1-2-4c-1.4-3-2.47-6.35-4.59-8.89-3.14-3.79-5.19-8.2-7.76-12.29S111.32,221.05,109,217a11.87,11.87,0,0,0-1.47-1.55c-2.59-3-5.45-5.71-7.46-9.16-.51-.88-1.69-1.15-1.93-2.31-.1-.51-.7-.54-1.21-.41a22.88,22.88,0,0,0-2.54.56c-2.71,1-5.59.42-8.34,1-1.31-1.1-3.53.41-4.53-1.58-2.4-.39-4-2.23-5.81-3.52a23.54,23.54,0,0,1-5.14-4.6c-1.25-1.57-2.7-2.94-3.57-4.81-1.23-2.64-2.68-5.18-3.84-7.85A15.16,15.16,0,0,1,61.57,176c.07-1.75-.41-3.48-.25-5.27a10.34,10.34,0,0,1,2.06-5.45,20.1,20.1,0,0,1,6.4-6c.54-.3.64-.9,1-1.28s.81-.84,1.2.09c.15.34.55.24.7-.14.09-.22.14-.48-.23-.51s-.91.26-.63-.49c.14-.38.39-.8.85-.69.61.14,1.18.45,1.79.63s1.07,0,1.12-.75a7.33,7.33,0,0,0-.22-2.84c-.69-2-.55-4.15-.88-6.21-.1-.63-.09-1.52.9-1.71s1.27.54,1.45,1.23c.51,1.89,1.3,3.66,2.15,5.91a6.23,6.23,0,0,0,.39-2.92c0-.62.12-1.15.87-1.15a1.16,1.16,0,0,1,1.18,1,1.43,1.43,0,0,1,0,.71c-.52,1.86.85,3.72,0,5.59a.53.53,0,0,0,.63.73c1.18-.42,2.41.09,3.59-.29,1-.31,1.82-.43,2.44-1.53.93-1.64,2.1-1.59,3.23-.06a1.5,1.5,0,0,0,1.35.68,21.57,21.57,0,0,1,3.93.7,13.85,13.85,0,0,1,3.76,1.7c2.41,1.44,5,2.66,6.83,5a23.15,23.15,0,0,1,1.72,2.91c.88,1.61,1.22,3.45,2.39,5,1.45,1.86,1.24,4.26,1.36,6.43a19.86,19.86,0,0,1-2.6,10.89,76.29,76.29,0,0,0-3.39,7.73,7.33,7.33,0,0,1-2.37,3,19.37,19.37,0,0,1-4.57,3.07c1.86,2.46,3.75,4.76,5.37,7.23.85,1.29,2.16,2,3.12,3.18a19.66,19.66,0,0,0,3.3,3.41c1.45,1.08,1.76,3,2.9,4.38s1.88,3,3.18,4.33a6.15,6.15,0,0,1,1.38,2.37A22.5,22.5,0,0,0,124,234.4c1.45,1.61,1.94,3.69,3.22,5.36,2,2.64,3,5.8,4.45,8.74a6.21,6.21,0,0,0,2,2.89.9.9,0,0,1,.4.56c.34,2.7,2,4.69,3.5,6.8,0,.07.12.13.13.2.12,2.8,2.06,4.77,3.42,6.9,2.1,3.27,3.27,7,5.54,10.14,2.67,3.69,4.22,7.91,6.06,12,1.44,3.21,3.41,6.18,4.61,9.5,1.14,3.12,3.48,5.62,4.27,8.93,1.57-.95.36-2,.43-3,.12-1.65.46-3.45-.52-5a.87.87,0,0,1-.14-.84c.62-2.09-.06-4.17,0-6.24,0-2.71-.11-5.4-.21-8.11,0-1,.64-2.14-.51-3-.32-.25.13-.73.17-1.11.26-2.67.76-5.27.2-8-.42-2.07.2-4.27.14-6.43-.09-2.77.55-5.59-.56-8.29.66-1.55.14-3.18.26-4.78.28-3.66.39-7.34.35-11,0-.74.27-1.35.3-2,0-1.3.86-2.57.09-3.9a.81.81,0,0,1,.17-1.07,1.45,1.45,0,0,0,.33-1.1c.1-1.78-.31-3.52.15-5.38s.26-3.79.7-5.66c.22-.95-.23-1.87-.3-2.81-.15-2,.54-3.85.65-5.79a43.84,43.84,0,0,1,.47-6.45c.19-1,.5-1.91.71-2.86s.67-1.89.29-3c-.28-.8.54-1.44.52-2.34a20.45,20.45,0,0,1,.65-4.05,19.86,19.86,0,0,0,.62-3,54,54,0,0,1,1.66-9.71,25.77,25.77,0,0,0,.25-3c.73-6.49,3-12.64,4-19.07.15-1,.44-2,.63-3a20.72,20.72,0,0,1,1.13-2.77c1.29-3.46,2.13-7.05,3.18-10.57.6-2,.63-4.13,1.57-6.05.58-1.17.34-2.57.48-3.81.35-3,1.51-5.83,1.42-8.91-.05-1.61,1-3.14,1.07-4.84a19.9,19.9,0,0,1,1-6.48,2.32,2.32,0,0,0,.14-1.63c-.18-.49-.18-1,.34-1.26.89-.49,1-1.42,1.2-2.23.62-2.56,1.74-5,2.1-7.62A35.47,35.47,0,0,1,188.61,92c.36-.91-.12-1.9.37-2.81.15-.28-.19-.46-.57-.48-2.84-.22-4.94-2.14-7.38-3.28-.87-.4-.7-2.13-2.06-2.38-.85-1.9-2.9-2.61-4.13-4.24a30.74,30.74,0,0,1-3.22-4.51,4.81,4.81,0,0,1-.83-2.42c0-.31.12-.74,0-.92-1.4-1.58-.91-3.52-.81-5.25s-.19-3.78.67-5.62c.56-1.2-.06-2.71.58-4a33.05,33.05,0,0,0,1.64-5.47c.63-2.09,2.71-3.19,2.91-5.4,0-.39,1-.62,1.5-1,1.75-1.68,3.51-3.34,5.42-4.87a8.58,8.58,0,0,1,4.29-2,13.51,13.51,0,0,0,2.33-.42c3.27-1,6.46-.48,9.62.41.51.14.94-.27,1.34,0s.86.88,1.42.38.48-1.27.23-2-.41-1.7-.72-2.51-.19-1.22.61-1.47,1.46-.19,1.79.66.48,1.5.7,2.21c.21.08.36.18.49.16.65-.09,1.1-1.08,1.92-.4s.11,1.35.15,2-.71,2,.43,2.24,1.32-.84,1.37-1.76c.08-1.37,1.31-1.25,2.13-1.51.47-.15.78.53.75,1-.07,1.09.16,2.19-.4,3.28-.67,1.3-.38,2,1,2.28,2,.42,3.1,1.89,4.35,3.16,1.69,1.73,2.55,4.13,3.37,6.26a48,48,0,0,1,1.9,6,15.26,15.26,0,0,1,.54,4.87c-.13,1.77-.75,3.37-1,5.07-.51,3.13-2.11,5.89-3.55,8.66-.49,1,0,2.14-.86,2.78-1,.75-1.25,1.93-2,2.79s-1.36,2-2.12,3c-1.64,2.11-4.2,2.78-6.16,4.35A1.62,1.62,0,0,1,205,89a2.13,2.13,0,0,0-2.06.32c-1.49,1.27-3.07.73-4.67.51-.83-.11-1.67-.53-2.48.17-.5.43-.83-.25-1.26-.35-1.08-.26-1.92,0-2.21,1.15-.58,2.41-1.52,4.75-1.52,7.28,0,.31.1.72,0,.93-1.35,1.85-1,4.07-1.32,6.12-.13.74-.7,1.18-.88,1.85-.72,2.61-1.47,5.2-2.23,7.79-.35,1.22-.68,2.46-1.13,3.64a5,5,0,0,0-.36,2.57,4.76,4.76,0,0,1-.34,3c-.85,1.6-.27,3.27-.52,4.88s-.65,3.24-1,4.86c-.3,1.45-.67,2.89-.84,4.35-.3,2.49-1,4.9-1.45,7.35a13.15,13.15,0,0,1-1.7,4.64,23.39,23.39,0,0,0-1.19,2.81,26,26,0,0,0-1.81,7.68c-.37,2.73-1.93,5.23-1.52,8.09,0,.14-.12.29-.17.44-1.05,2.63-1.27,5.48-2.08,8.14-.65,2.13-.59,4.36-1.41,6.43a4.71,4.71,0,0,0-.18,1.65c0,2.39-.76,4.72-.87,7a60.19,60.19,0,0,1-1.3,8.08c-.5,2.85-1,5.72-1.38,8.58-.32,2.54-1.09,5.08-.79,7.71.15,1.32-.24,2.63-.21,4a46.28,46.28,0,0,1-.29,8.16c-.35,2.27,0,4.56-.68,6.85s-.06,4.62-.19,6.94c0,.72-.5,1-.59,1.58a3.54,3.54,0,0,0,.28,1.85c1.57-3.08,3.1-6.17,4.71-9.21,1.73-3.28,3.74-6.43,5.25-9.8S177.81,220.5,179,217c.51-1.45,1.75-2.77,2.31-4.34a58.1,58.1,0,0,1,4.85-9.49,49.84,49.84,0,0,1,2.75-4.4c1.49-2,2.93-4.14,4.33-6.23a57.53,57.53,0,0,1,5.33-7c3.41-3.71,6-8,9-11.9a42.21,42.21,0,0,1,7.2-7.51,53.73,53.73,0,0,0,6.48-6.41,129.92,129.92,0,0,1,11.52-11.94c.89-.78,1.21-1.28.16-2-3.13-2-3.38-5.55-4.59-8.57-.6-1.51-.39-3.26-1.11-4.78-.09-.2-.15-.57,0-.69,1.31-1.34.54-3,.7-4.51.22-2.17,1.28-4.15,1.51-6.32.26-2.5,2.32-4.33,2.45-6.89,0-.53.59-1.09,1-1.53,3.4-3.52,6.75-7.07,11.27-9.26,1.44-.7,3-1,4.43-1.54a13.37,13.37,0,0,1,9-.34c1.64.52,3.56-.16,5.09,1.1a1,1,0,0,0,1.29-.32c.49-.75,1.47-1,1.81-1.86s1.32-1.06,2.1-1.42c.94-.44,1.54.08,2,.79a1.07,1.07,0,0,1-.53,1.61c-1.14.53-1.55,1.78-2.57,2.39a1.25,1.25,0,0,0-.63,1.42c.09.56.62,1,.91.56.79-1.28,2.21-.87,3.25-1.47,1.72-1,3.09,0,3.06,2,0,1.58,0,1.73,1.61,1.73a1.73,1.73,0,0,1,1.92,1.32c.32,1-.33,1.51-.92,2a8.87,8.87,0,0,1-2.09,1.1c-1,.52-1.2,1.34-.45,2.15,2.36,2.56,3.7,5.69,5.1,8.8.21.49,0,.93.11,1.37.23,1-.15,2.22.73,3.09.35.35.19.68.08,1.08-.59,2.09-1.31,4.16-1,6.39.06.38-.35.48-.48.74-.53,1.06-1.09,2.12-1.52,3.22-.58,1.46-.92,3-2.68,3.63a.94.94,0,0,0-.5.5c-.65,1.66-2.34,2.09-3.51,3.12s-3.11,1.19-4.17,2.55c-2.85-.22-4.8,2.64-7.71,2.23-5.93,1.49-7.94,1.33-14-.77-1.78-.62-3.85-.6-5.47-1.46-2.25-1.21-3.35-.16-4.78,1.29-2.61,2.63-4.85,5.58-7.4,8.26a30.31,30.31,0,0,0-3.71,4.27,16.52,16.52,0,0,1-3.37,3.31c-2.38,2.07-4.51,4.4-6.9,6.46a12.29,12.29,0,0,0-2.18,2.74c-1.24,2-3,3.63-4.32,5.54-2.07,3-4.29,5.78-6.46,8.64-1.44,1.89-3.06,3.62-4.48,5.53-.71.95-1.27,2-2,3-1.68,2.32-3,4.88-5,7.05-.14.15-.11.44-.2.84a21,21,0,0,0,5,.22c4.47-.15,9,.18,13.39-.87,1.66-.39,1.66-.28,1.93-2.21a9.58,9.58,0,0,1,1.76-4.23c1.76-2.45,3.22-5.13,5.36-7.34,1-1.05,1.6-2.5,2.67-3.6a142.79,142.79,0,0,1,11.75-10.78c2.7-2.2,5.87-2.84,9-3.84,3.61-1.16,7.4-1.47,11.14-2,3.19-.45,6.36-1.08,9.56-1.36s6.31-.42,9.47-.51c3-.09,5.84-.75,8.76-1.12,4.78-.59,9.55-1.24,14.34-1.75,3.09-.33,6.14-1.07,9.29-1,1.44,0,2.73-.8,4.14-.95,1.06-.11,2.58-.77,3.12.24.66,1.23-.76,2.13-1.64,2.85-2.7,2.22-4.4,5.23-6.57,7.87-2,2.4-3.9,5-6.54,6.9-2.82,2-4.81,5-7.83,6.8-.6,1.64-2.23,2.41-3.28,3.67s-2,3.21-3.79,4a1.13,1.13,0,0,0-.49.5c-1.35,2.71-4.17,3.95-6.1,6.09-.57.63-1.48.91-1.57,1.95,0,.18-.26.42-.46.5-1.48.64-2.51,1.93-3.88,2.67a47.21,47.21,0,0,1-12.37,4.8c-2.43.52-4.86,1.1-7.3,1.58a20.36,20.36,0,0,1-6.24.54c-1.82-.21-3.66-.16-5.5-.4a9.31,9.31,0,0,1-3.18-.81,8.81,8.81,0,0,0-2.14-.66c-1.35-.33-2.84-.32-4-1.28a3.17,3.17,0,0,0-1.61-.35,20.89,20.89,0,0,1-8.22-2.22c-.27-.15-.51-.44-.79-.49-1.39-.26-1.83-2.51-3.8-1.68a13.35,13.35,0,0,1-4.18.55c-2.84.22-5.62.84-8.49.89-3.32.07-6.6-.45-9.92-.27-2,.11-2-.05-2.73,1.69-1,2.61-2.6,4.93-3.78,7.46s-2.9,5.11-3.3,8.09c-1.43.89-1.47,2.7-2.56,3.84a8.16,8.16,0,0,0-1.61,3.14,30.67,30.67,0,0,1-3.9,7.59c-2.35,3.36-4.47,7-5,11.21a1.3,1.3,0,0,1-.54,1c-.55.44-.92,1.25-.68,1.68.67,1.22,0,2.46.32,3.73s-.1,3,0,4.5a50.69,50.69,0,0,1,.11,7.88c-.31,4.46.05,8.91-.17,13.36-.1,2-.39,4.27.62,6.26.3.59-.39.82-.31,1.24.65,3.51.24,7,.32,10.55a29.74,29.74,0,0,0,.23,5.8,25,25,0,0,1,.8,6c0,2,.89,3.7.7,5.66a17.45,17.45,0,0,0,.72,5.9,16.64,16.64,0,0,1,.36,5.75c-.09,1,.84,1.65.92,2.64a91.42,91.42,0,0,0,1.34,9.89c.48,2.57,1,5.15,1.46,7.71s.78,5.33,1.3,7.94a34.28,34.28,0,0,1,1.09,7.67,3.33,3.33,0,0,0,.47,1.33,9.22,9.22,0,0,1,.92,3.82,3.85,3.85,0,0,0,1,3.07c-.83,1.32.07,2.45.53,3.53a14.76,14.76,0,0,1,.78,3.11,39,39,0,0,0,1.75,6.54c.57,1.5.61,3.11,1,4.66s.51,2.92,1.06,4.39a30.69,30.69,0,0,1,1.06,5.73c.58,3.67,1.94,7.14,2.61,10.77,1.12.6.09,1.54.36,2.3A65.59,65.59,0,0,1,188,424a19.92,19.92,0,0,0,1.48,3.94,2.19,2.19,0,0,1,.28,1.78,1.22,1.22,0,0,0,.36,1.28c1.14,1.19.75,2.89,1.27,4.31a6.73,6.73,0,0,0,.3,1.27,5.64,5.64,0,0,1,.67,3.3,8.92,8.92,0,0,0,1.64,5.28A1.35,1.35,0,0,0,195,444c.2-2.53,1.42-4.71,2.37-7a27,27,0,0,0,1.68-5.13,48.08,48.08,0,0,1,2.55-7.41,5.55,5.55,0,0,0,.4-1.06,25.51,25.51,0,0,1,2.33-6.79c1.61-3.42,2.49-7.09,3.71-10.64,1-3,1.49-6,2.5-9,1.62-4.79,3.82-9.36,5.3-14.2,1.53-5,4.24-9.35,7-13.72.89-1.43,1.47-3.05,2.26-4.54,1.27-2.37,2.77-4.6,4.16-6.89,2.17-3.61,4.65-7,7-10.54a5.88,5.88,0,0,0-2-2.45c-1.89-1.39-2.64-3.65-4.28-5.25-.94-.92-1.07-2.7-1.6-4.06a21.6,21.6,0,0,1-1.74-5,32.58,32.58,0,0,1-.29-7.82,10.24,10.24,0,0,1,1.71-3.77,56.31,56.31,0,0,1,5.06-6.47,14.09,14.09,0,0,1,3.77-3.1c2.44-1.52,4.78-3.51,7.7-3.87a24.77,24.77,0,0,1,7.76.45,18.06,18.06,0,0,1,4.82,1.17,1.24,1.24,0,0,0,1.88-.83c.36-1,1.09-1.71,1.39-2.75a1.76,1.76,0,0,1,3-.82c.9.92.8,1.48-.47,2.15s-1.5,2-1.95,3.1a1.26,1.26,0,0,0,.91,1.48c.63.24,1.36.32,1.71-.34a2.69,2.69,0,0,1,2.31-1.29c.28-.05.84-.05.81.26-.22,2,1.52,1.57,2.57,2.08-.19,1.38-1.63,1.7-2.14,2.75-.24.5-.45,1,.09,1.2,1.72.68,2.41,2.45,3.78,3.43a9.16,9.16,0,0,1,2.51,3,5.36,5.36,0,0,1,.66,4.29c-.61,2.84-.57,5.84-1.27,8.56-1,4-2.66,7.85-5.88,10.86-1.35,1.26-3.22,2.07-4,4-.2.51-1.17.78-1.83,1a20.71,20.71,0,0,0-4.32,2.27c-.25.18-.64.46-.83.38-1.91-.82-3.84.33-5.78-.2s-3.45-1.4-5.32-1.75c-.89-.17-1.64-1-2.72-1.22-2.34-.39-3.89.14-4.8,2.29A22.66,22.66,0,0,1,234,356a21.06,21.06,0,0,0-3.8,6.33,19,19,0,0,1-2.9,4.94,28.4,28.4,0,0,0-1.57,2.79c-1.61,3-3.9,5.62-4.6,9.1a6.84,6.84,0,0,1-1.45,2.5,8.58,8.58,0,0,0-1.16,2.73q-2,5.5-4.14,10.94a12.92,12.92,0,0,0-1.32,5c0,1-.86,2.08-1.21,3.19-.82,2.62-1,5.42-2.14,8-.3.65-.48,1.47-.82,2.17-1.32,2.75-2.84,5.41-3.26,8.52-.07.53-.63.95-.91,1.49a8,8,0,0,0-.93,3.38c-.13,2.29-1.26,4.36-1.86,6.56-.82,3-2.63,5.72-3.52,8.78-.44,1.47-1.38,2.89-1.43,4.39-.08,2.08-.5,4.11-.53,6.19a11.43,11.43,0,0,0,.64,3.74c1.51,4.67,3.25,9.28,4.5,14,1.06,4,2.54,7.94,3.7,11.93.48,1.62.63,3.34,1.1,5,.61,2.13,1.76,4.14,2.06,6.28a48,48,0,0,0,2.11,7.52c.87,2.78,1.16,5.76,2.73,8.33.35.56.2,1.4.44,2.06,1.59,4.41,2.74,9,4.44,13.34,1.24,3.19,1,6.82,3.2,9.67,0,2.28.76,4.41,1.15,6.62a29.46,29.46,0,0,0,1.59,4.21c.95,2.81,1.14,5.82,2.4,8.56a17.74,17.74,0,0,0,.82,1.63c.29.49,1.06,1,.35,1.83-.11.12.11.59.23.87a69.73,69.73,0,0,1,3.14,7.82c.47,1.7,1.61,3.23,1.43,5.11,1.62,1.88,1.09,4.74,2.92,6.52.28.27.19.55.22.86a10.88,10.88,0,0,0,1.73,5.61,2,2,0,0,1,.34.87c.34,3.21,1.73,6.07,2.74,9.07.69,2.06,1.67,4.23,1.54,6.54a2.9,2.9,0,0,0,.63,2c1,1.21,1.17,2.7,1.83,4,1.19,2.34,1.41,5.07,3,7.2a8,8,0,0,1,1.08,2.26,40.17,40.17,0,0,0,3.94,7.79,3.42,3.42,0,0,0,.59-2.58,62.51,62.51,0,0,1,1-7.25,81.63,81.63,0,0,0,.54-8.57,48.91,48.91,0,0,1,.93-8.19c.38-1.86.7-3.74,1-5.6,1-5.66,3-11.1,4-16.74.46-2.58,1.22-5.17,1.11-7.85a3.66,3.66,0,0,1,.22-1.16,38.87,38.87,0,0,0,1.44-5.74c.23-1.57,1.29-2.86,1.59-4.43.81-4.24,2.68-8.15,3.81-12.29,1-3.76,2.82-7.21,4.35-10.76.48-1.09.75-2.25,1.17-3.35.56-1.49-1.45-1.59-2-2.62a12.47,12.47,0,0,0-3-3.61c-1.09-.89-1-2.67-2.31-3.23-1.44-.64-1-2.11-1.71-3.09-1.3-1.71-1.95-3.89-3.15-5.73-.08-.13-.24-.25-.26-.39-.36-2.95-2-5.51-2.53-8.45-.48-2.49-1.27-5.06-1.68-7.54-.45-2.67-1.11-5.4-.78-8.3a90,90,0,0,0,1-10.62c0-2.22,1.39-3.93,1.94-5.94s2-3.57,2.82-5.41,1.74-3.71,2.59-5.56c.58-1.25,1.29-2.45,1.84-3.73a4.06,4.06,0,0,0,.56-1.56c0-1.14,0-2.29,1.52-2.55a.69.69,0,0,0,.44-.5c.08-2,1.9-3,2.72-4.55,1.85-3.55,4.9-6.25,7.3-9.43,1.11-1.48,2.84-2.45,3.29-4.5.14-.67,1.28-.68,1.9-1.25,1.46-1.35,2.57-3,4.05-4.34,1.89-1.71,3.63-3.65,5.54-5.29,1.63-1.4,3.14-3.09,5.14-4.1a16.66,16.66,0,0,0,3.21-2.78,48.76,48.76,0,0,1,8-5.83,10.81,10.81,0,0,0,1.88-1.74c2.83-2.63,6.37-4.29,9.12-7.08a25.67,25.67,0,0,1,4.95-3.46c3-1.81,5.47-4.34,8.28-6.41,2.34-1.73,4.45-3.74,6.95-5.3,1.87-1.18,3.49-2.83,5.28-4.18,2-1.51,3.56-3.5,5.73-4.8a4.88,4.88,0,0,0,1.2-1.16,40.64,40.64,0,0,1,5.35-5.14,7.73,7.73,0,0,0,1-1.29,4,4,0,0,1,2.18-1.68,3.33,3.33,0,0,0,2.1-1.42c.44-.81,1-.7,1.6-.51a1.43,1.43,0,0,1,1,1.44,54,54,0,0,1-.48,7.73c-.18,2.26-.55,4.48-.88,6.72a13.32,13.32,0,0,1-.38,1.51c-.37,1.35-1.11,2.6-1,4.09a3.85,3.85,0,0,1-.44,1.82c-1.08,2.3-1.24,4.83-1.82,7.25a21.34,21.34,0,0,1-1.09,3c-.87,2.17-1.14,4.52-1.82,6.75-.52,1.73-.15,3.81-.22,5.73a5.85,5.85,0,0,1-.19,1.64,39.73,39.73,0,0,0-1.36,8.6.59.59,0,0,1,0,.23c-1.75,4.59-1.5,9.56-2.68,14.24-.63,2.5-1.83,4.88-2.25,7.45-.52,3.23-2.35,6.11-2.39,9.46a4,4,0,0,1-.68,1.77,9.75,9.75,0,0,0-1.24,4.66c0,1.26-1.08,1.91-1.41,3a76,76,0,0,1-3.87,10.13,56.36,56.36,0,0,0-3.56,9.31c-.3,1.05-1.23,1.81-1.82,2.72-1.26,2-2.17,4.13-3.65,5.95-1,1.21-1.58,2.75-2.43,4-2.33,3.34-3.9,7.22-7,10-.72.66-1.09,1.76-1.73,2.46a74.86,74.86,0,0,1-6,5.7,5.29,5.29,0,0,0-1.18,1.13,4.27,4.27,0,0,1-2.48,2,2.19,2.19,0,0,0-.83.43c-2.68,2.58-5.94,4.4-8.83,6.68a45.81,45.81,0,0,1-12,6.52c-1.85.72-3.3,1.94-5,2.74ZM227.05,182.71c-1-.19-1.43.56-1.94,1.14-.74.82-1.53,1.58-2.32,2.35-1.95,1.9-3.75,4-5.6,6a28.68,28.68,0,0,0-4.11,5.72c-.76,1.42-2.38,2.57-2.09,4.61,4.17,0,8.28-.8,12.45-.92-.07-.74-.8-.75-.75-1.35.25-3-.05-6.07.83-8.81a40.17,40.17,0,0,1,3.74-8.45c.16-.2.6-.38.16-.65C227.24,182.19,227.06,182.47,227.05,182.71ZM114.4,372.19c.15.5,0,1.15.84,1.31.17-.76.19-1.37-.88-1.26.17-.11.39-.11.43-.45a41.48,41.48,0,0,0-.34-8.91c-.36-3.05-1.56-5.93-1.63-9.05-.06-2.39-1.77-3.86-3.8-4.68s-4.26-1.94-6.32-2.93a55.89,55.89,0,0,0-6.53-2.32c0-.21-.11-.35-.35-.28a.24.24,0,0,0,0,.19c.12.21.28.21.44,0-.4.18-.4.5-.14.73a4.65,4.65,0,0,1,1.11,2.52,22.48,22.48,0,0,1,.42,11c-.13.58-.32,1.09.17,1.52,1.06.93,2.07,2,3.54,2.26a2,2,0,0,1,1.33.78,25.37,25.37,0,0,0,3.06,2.51,51.88,51.88,0,0,1,6.67,5.63C112.89,371.39,113.27,372.42,114.4,372.19Zm28.13,23.61,1.12.87-.51-1.79a11.88,11.88,0,0,1-.95-2.92,16.28,16.28,0,0,0-1.95-5.87c-1-1.48-1.31-3.21-2.34-4.7a25.07,25.07,0,0,1-2.05-4.88c-.62-1.6-2-2.78-2.24-4.54,0-.32-.31-.54-.42-.8-1.31-3.07-3.92-5.18-5.81-7.82a6,6,0,0,0-1.94-2c-2.55-1.33-4.33-3.62-6.64-5.28-1.12-.81-2.21-1.65-3.5-2.5.22,2.23.46,4.25.69,6.26a49.8,49.8,0,0,1,.32,12.62,3.25,3.25,0,0,0,1.77,3.57,14.57,14.57,0,0,1,2.77,1.7c2.86,2.69,6.3,4.55,9.4,6.87,2.74,2.06,5.46,4.2,8.11,6.4.68.56.7,1.65,1.59,1.92C141.43,393.36,141.88,394.65,142.53,395.8ZM213.44,47.05c-2.31,2.47-5.83,2.67-8.64,1.88-.53-.15-1-.41-1.58-.51-3.65-.69-5.57-3.28-6.92-6.39-.79-1.82-.77-2-2.65-2.05-.39,0-.8.11-1.13-.2-2-1.88-4-.53-5.74.23A18.9,18.9,0,0,0,180,45a25.79,25.79,0,0,0-5.58,9.92c-.62,2.18-.47,4.36-.94,6.52a27.5,27.5,0,0,0-.63,4.89,12.84,12.84,0,0,0,4.65,10.52c1.23,1.05,2.08,2.47,3.2,3.45,1.8,1.57,3,4.35,6.15,3.93a.47.47,0,0,1,.38.17c.95,1.47,2.34,1,3.66.82a1.66,1.66,0,0,1,1.12.06,15.63,15.63,0,0,0,9,1.14c1.47-.18,2.63-1,4-1.26,2.8-.53,5.27-1.49,6-4.67,1.71-1.52,2.13-3.84,3.47-5.59.95-1.23,1.15-2.83,1.8-4.23.9-1.94,1.13-4.18,1.75-6.26a10.82,10.82,0,0,0-.19-7.38c-.15-.36-.49-.7-.51-1.06C217.21,52.56,215.53,49.81,213.44,47.05ZM71.53,465.27c-.16.66-.27,1-.33,1.43a5.06,5.06,0,0,0-.06.95,22,22,0,0,0,4.34,12.59c1,1.32,2,2.6,3.11,3.86A8.58,8.58,0,0,0,82,487a4.2,4.2,0,0,1,1.38,1.23,13.82,13.82,0,0,0,8.74,4.52,7.75,7.75,0,0,1,2.51.59c1.91.91,3.83,1.28,5.69,0,.77-.52,2,.31,2.45-1,.41-1.08,1.69-.81,2.41-.95a9.31,9.31,0,0,0,5.87-4.07c1-1.31,1.62-2.85,3.11-3.71a1.15,1.15,0,0,0,.45-.5,75.35,75.35,0,0,0,3.2-12.69,19.43,19.43,0,0,0-.25-9.3c-.29-1,.11-2.16-.68-2.95a9.75,9.75,0,0,1-1.78-2.9,7.07,7.07,0,0,0-2.71-2.91c-2.5-1.64-5.41-2.5-8-4a3.28,3.28,0,0,0-2.71-.17c-2,.75-4.43-.21-6.06,1.77-.08.1-.3.09-.46.12-2.56.37-4.74,1.74-7,2.8a1.91,1.91,0,0,0-.94,1.19c-.38.95-.15,2.19-1,2.85A10.51,10.51,0,0,0,84,460c-1.43,2.16-3.08,4.16-6,4.42-.47,0-1-.09-1.38.26C75.13,466,73.42,465.84,71.53,465.27ZM253.85,103.21a4.22,4.22,0,0,0-1.09,0c-1.89.54-3.81,1-5.65,1.73a9.78,9.78,0,0,0-3.52,1.88,58.82,58.82,0,0,1-5.11,4,17.29,17.29,0,0,0-3.76,4.45c-.44.7-.36,1.5-.8,2.18-1.22,1.88-1.42,4.1-2,6.19-.48,1.65-.08,3.24-.36,4.87-.5,3-.92,5.91.17,8.94a13.83,13.83,0,0,0,6.81,7.58c1,.45,2.09.42,3.11.91,4.42,2.09,8.86,3.85,14,2.61a74.19,74.19,0,0,0,7.75-2.78,14.35,14.35,0,0,0,3.27-1.23c2.62-1.84,5.34-3.73,6.62-6.8s3.54-6.25,2.18-10a26.55,26.55,0,0,1-.63-3.74c-.33-1.58-1.62-2.65-2.16-4.1-.83-2.24-1.94-3.73-4.76-3.68-2.62,0-4.58-1.81-6.57-3.4s-2.74-3.78-3.52-6c-.36-1,.32-2.35-.64-3.14S254.83,103.72,253.85,103.21Zm-190,67.62a42.71,42.71,0,0,0,2.35,11.42c.36,1,.43,2,1.48,2.82.58.45.9,1.84,1.23,2.76.89,2.44,3,3.91,4.17,6.08,1,1.91,3.29,2.64,4.94,4a15.77,15.77,0,0,0,5.15,3.06,17.59,17.59,0,0,0,9.46.25c4-1.05,7.76-2.67,10.36-6.19.51-.69,1.63-1.22,1.56-2-.15-1.58.91-2.6,1.31-3.9.47-1.47,1.66-2.72,1.41-4.43,1.47-1,1.45-2.6,1.82-4.1a11.54,11.54,0,0,0-1-8.44c-.5-1-1.39-1.87-1.52-2.77a10.29,10.29,0,0,0-2.37-4.77,14.65,14.65,0,0,0-11-5.84,3.39,3.39,0,0,0-3.34,1.37,5.42,5.42,0,0,1-3.54,2.22,35.21,35.21,0,0,1-8.55,1.54c-2.29.09-4.36.33-5.85-1.9-.58-.87-1.39-.79-2.2,0A33.43,33.43,0,0,0,65.09,167C64.19,168.33,63.52,169.61,63.86,170.83ZM250.62,308.48c-.4-.15-.63-.33-.82-.3-2.56.4-5.43-.63-7.59,1.65-.09.09-.3.09-.45.12-2,.39-3.58,1.77-5,3a13.24,13.24,0,0,0-3,3.16,22.41,22.41,0,0,1-1.78,2.52,8,8,0,0,0-2.18,4.81c-.05,1.12.36,2.34-.08,3.37-.77,1.86,0,3.48.68,5a58.5,58.5,0,0,0,3.17,6.82,16.13,16.13,0,0,0,5,5.31c1.62,1.07,3.86,1.35,5.92,1.61.45.06.86-.11,1.33.22,2.11,1.5,4.7,1.64,7.07,2.4a3.48,3.48,0,0,0,1.88-.12c1.6-.42,2.89-1.49,4.34-2.08,3.94-1.61,5.83-5.09,8.08-8.19,1.72-2.37,2.37-5.34,2.95-8.19a19.27,19.27,0,0,1,.7-3.68c.81-2,.18-3.57-1.1-5-1.69-1.94-1.69-1.92-4.08-.59a4.32,4.32,0,0,1-.91.19,8.45,8.45,0,0,1-8.36-1.61c-1.26-1.06-2.72-1.87-3.33-3.53a1.12,1.12,0,0,0-.9-.73c-1.21-.18-1.45-1.13-1.62-2.07C250.18,311.19,249.62,309.82,250.62,308.48Zm105.29,97.06c-1,.9-2,.84-3,1.22a44.83,44.83,0,0,1-13.33,3.32,28.84,28.84,0,0,0-6.45,1.47,8.72,8.72,0,0,1-3,.69c-1.77-.2-3.22.76-4.86.78a2.11,2.11,0,0,0-1.74,1.16,12.61,12.61,0,0,1-2.62,3.06,11.77,11.77,0,0,0-1.78,2.24c-.47.74-.18,1.12.76,1.07,3.36-.18,6.74-.43,10.07-.83a54.44,54.44,0,0,0,7.69-1c1.57-.42,3-1.14,4.58-1.48,3.15-.7,6.34-1.25,9.45-2.13a1.47,1.47,0,0,1,1.89.95c.39,1-.29,1.26-.92,1.58a4.27,4.27,0,0,1-1.13.29,53.89,53.89,0,0,0-6.69,1.48A37.28,37.28,0,0,1,334,421.79a19.92,19.92,0,0,0-4.47.47,14.66,14.66,0,0,1-5.07.42c-2.16-.23-4.2.32-6.29.22-.71,0-2,.29-2,.93-.05,1.38-1.35,1.05-1.81,1.74a13.38,13.38,0,0,1-1.7,2.39,37.45,37.45,0,0,0-6.59,8.51,36.76,36.76,0,0,1-3.67,5.77.63.63,0,0,0,0,.86c.15,0,.3.14.44.11a67.3,67.3,0,0,1,15.85-.74c4.46.19,8.89-.48,13.34-.7,1.44-.07,2.7-.85,4.12-1a43.82,43.82,0,0,0,6.4-1.43c2-.49,4-1.54,6.16-1.09,1.43.31,1.75-.34,2.12-1.44s.29-2.13.65-3.19c1.32-3.93,2.88-7.85,2-12.16a1.37,1.37,0,0,1,.19-.67C355.64,416,355.56,410.93,355.91,405.54Zm-18.52,70.9a4.29,4.29,0,0,0-2.27.08,45.5,45.5,0,0,1-5,.91c-4.1.81-8.27.36-12.39.67-5.94.45-11.89-.11-17.85.51-4.58.48-9.18,1.36-13.84.95-.85-.08-1.28.25-1.44,1.15s0,1.71-.62,2.41a9,9,0,0,0-1.57,3.54c-.56,1.67-1.55,3.19-1.85,4.9s-1.37,3.25-1.66,5a21.54,21.54,0,0,1-1.44,4.23c-.44,1.1-.12,1.52,1,1.39,2.89-.35,5.76-.78,8.63-1.21,2.17-.33,4.35-1.1,6.49-1a40.46,40.46,0,0,0,9.36-.93c2.24-.41,4.46-1.38,6.74-1.82a67.07,67.07,0,0,1,7-1.37c.79-1.29,2.47-.39,3.29-1.23s1.69-.65,2.56-.82c1.15-.21,2.33-.27,3.5-.39,1.73-.17,2.2-1.54,3.07-2.76,1.45-2,2.5-4.29,4.11-6.2C335.17,482.11,335.54,478.94,337.39,476.44Zm-12.33,20.21a4.23,4.23,0,0,0-2.51.22c-4.72,1.31-9.47,2.49-14.19,3.78-1.74.47-3.57.41-5.28,1.06a12.06,12.06,0,0,1-4.51.92,32.22,32.22,0,0,0-4.08-.16c-3.11.36-6.14,1.12-9.29,1.3a38.66,38.66,0,0,0-7.48.76c-.53.13-1.09.34-1,.77.27,1.52-.89,2.76-.65,4.31a24.38,24.38,0,0,1-.13,4c0,1.52-.13,3-.06,4.59s-.76,3.16.5,4.6c.05.07-.09.29-.12.44-.57,2.25,1.34,3.3,2.35,4.77a1,1,0,0,0,.88.29c1.92-.31,3.88.16,5.8-.73s3.43-2.07,5.42-2.32c3.21-.39,5.78-2.18,8.27-3.9s5-3.7,7.62-5.27c.8-.48.59-1.59,1.4-1.69,3-.38,3.86-3.47,6.18-4.77,1-.55,1.7-1.85,2.72-2.59a25.89,25.89,0,0,0,6.28-7.15C323.83,498.86,324.79,498.05,325.06,496.65ZM350,441a3.61,3.61,0,0,0-2.95.08,52.48,52.48,0,0,1-10.37,2.88c-1.72.37-3.54.28-5.24.7-2.41.61-4.82.39-7.25.42-3.76,0-7.5-.35-11.26-.38-3.2,0-6.38.36-9.58.13-2.34-.17-2.47,0-3.44,2-1.2,2.52-2.53,5-3.65,7.54-.94,2.14-2.56,4-2.91,6.59,1.81-.23,3.38.54,5.09.25,3.87-.65,7.79,0,11.72-.58,3.71-.59,7.6-.21,11.39-.05a30.13,30.13,0,0,0,7.24-.64c2.38-.5,4.76-1,7.17-1.42s4.85-.69,7.26-1.08a9.6,9.6,0,0,0,1.54-.63,1.6,1.6,0,0,0,1.12-1.86A11.38,11.38,0,0,1,347,450C348.2,447.07,348.59,443.93,350,441Zm-57.93,21.47c-.41.88-.05,2-.83,2.63-1.36,1-1.69,2.52-2.25,4s-.39,3.18-1.81,4.35c-.64.53,0,1.73-.66,2.47a1.27,1.27,0,0,0-.33,1.53c.36.53,1,.27,1.55.15,4.22-.86,8.55-.86,12.82-1.6,3.06-.52,6.27-1.2,9.52-.44a8.92,8.92,0,0,0,3,.12c3.62-.48,7.26-.32,10.88-.51a43.36,43.36,0,0,0,6.92-.4c2.52-.53,4.93-1.67,7.59-1.44a.9.9,0,0,0,.91-.94c.11-1.91,1.8-3.37,1.52-5.39a1.24,1.24,0,0,1,.37-.83c1.61-1.66,1.73-3.83,2.34-6.12-1.34.46-2.46.11-3.52.59-2.34,1.07-5.1.35-7.41,1.65a.69.69,0,0,1-.47,0c-1.56-.56-3,0-4.39.56a8.49,8.49,0,0,1-4.78.58c-2.42-.51-4.83-.26-7.22-.34-3.28-.11-6.58.56-9.86.46-2.87-.08-5.71.49-8.63,0C295.57,463.17,293.88,462.37,292.06,462.44Zm-24.34-.59a13.17,13.17,0,0,0-1.57,1.78,43,43,0,0,0-2,4.39,35.13,35.13,0,0,0-3.08,8.27c-.63,3.26-.77,6.55-1.23,9.81-.18,1.25.4,2.46.25,3.74-.27,2.19.72,4.25.86,6.44a20.41,20.41,0,0,0,1,4.78c.5,1.58,1.09,3.13,1.48,4.73.23,1,.18,2,.92,2.85,1.14,1.2,1.4,2.9,1.84,4.3.92,3,2.9,5.13,4.5,7.59.44.66,1,.34,1.27-.23a2.3,2.3,0,0,0,.2-1.16,32.87,32.87,0,0,1,.76-9.74c.6-2.78.27-5.62,1-8.46a110.72,110.72,0,0,1,4.6-13.85c.64-1.6.62-2.65-.55-3.79-.51-.5-1-1.05-1.48-1.55-2.07-2.08-4.1-4.31-5.12-7a34.11,34.11,0,0,1-2.6-10.33A3.17,3.17,0,0,0,267.72,461.85ZM108.79,372.47A53.77,53.77,0,0,0,97.72,364a35.86,35.86,0,0,1-4.63-3.09,4.23,4.23,0,0,0-4.82-.79c-2.65,1.38-5.16,3-7.93,4.17-2,.83-4.23.7-6.16,1.67a6.18,6.18,0,0,1-2.26.61,60.49,60.49,0,0,1-8.64.58c-3.4-.14-6.82.19-10.45-.63A18.76,18.76,0,0,0,58.06,371c2.95,1.66,5,4.29,7.67,6.27,1.67,1.24,3.21,2.61,5.27,2.56,3.12-.08,6.29.27,9.36-.45,3.66-.86,7.38-1.28,11-2.24C97.15,375.64,102.91,374.24,108.79,372.47ZM88,357.68c-3.4-1.4-6.48-2.87-9.7-3.93a57.53,57.53,0,0,1-10.11-4.41,2.87,2.87,0,0,0-3-.3,7.32,7.32,0,0,1-2.7.47,51.58,51.58,0,0,0-6.5,1c-3.5.57-7,.95-10.55,1.4a.48.48,0,0,1-.24,0c-2.05-.73-4.27-.1-6.34-.74a1.2,1.2,0,0,0-1.48.42c.22,1.48,1.75,1.69,2.45,2.61,2.44,3.21,5.48,5.8,8.31,8.62a8.68,8.68,0,0,0,4.36,2.25,26.7,26.7,0,0,0,6.85.5c2.77-.08,5.56-.06,8.33-.23,4.12-.24,7.86-2.08,11.81-3.05C82.46,361.54,85.13,359.67,88,357.68Zm5.58,35.51a9,9,0,0,0,1.34.82,47.92,47.92,0,0,1,8,3.54c3.41,1.9,7,2.78,10.61,4.08a9.93,9.93,0,0,0,5.24.52,1.53,1.53,0,0,1,.67,0,50.6,50.6,0,0,0,15.16,1.74,55.83,55.83,0,0,0,7.24-1c.65-.09.93-.23.69-.81a13,13,0,0,0-2.94-5c-1.88-1.73-3.93-3.28-5.85-5a56.54,56.54,0,0,0-4.56-4.22c-2.61-1.83-5.38-3.74-8.78-1.57a3.57,3.57,0,0,1-.68.18c-4.84,1.61-9.66,3.29-14.53,4.8a54.88,54.88,0,0,1-5.43,1.45C97.91,393.08,96,392.48,93.6,393.19Zm234.68,16.57a2.32,2.32,0,0,0,1.53-.14,17.48,17.48,0,0,1,5.51-1.21c4.49-.56,8.71-2.13,13.12-3,2-.37,3.82-1.57,5.76-2.27a5.3,5.3,0,0,0,3.72-3.51c.17-.6.07-1.29.28-1.87,1.42-4,1.91-8.16,3.14-12.15.45-1.47.28-3,.83-4.36a20.77,20.77,0,0,0,1.45-6.18c.12-1.73.93-3.42.49-5.43a27.25,27.25,0,0,0-3.65,3.31c-1,1.25-1.74,2.68-2.73,3.95-1.29,1.66-2.44,3.43-4.25,4.62a7.66,7.66,0,0,0-1.76,1.87,54.2,54.2,0,0,1-5.12,5.88c-.66.63-.41,1.66-1.32,2a8.38,8.38,0,0,0-2.79,2.13c-.91.87-1.49,2-2.48,2.81a50.56,50.56,0,0,0-4.08,4.2c-1.21,1.25-2.27,2.62-3.43,3.89A24.28,24.28,0,0,0,328.28,409.76ZM122.14,383.9c-.47-1.29-1.72-1.29-2.22-2-.94-1.33-2.64-1.8-3.41-3.25-1.91.22-2.23-1.89-3.62-2.48a8.16,8.16,0,0,1-1.67-1.31,3.19,3.19,0,0,0-3-.61c-1.62.42-3,1.34-4.58,1.85-3.8,1.21-7.77,1.71-11.56,2.93a67.61,67.61,0,0,1-17.71,2.83c-.37,0-.81,0-.88.59a10.15,10.15,0,0,0,2.74,1.68,29,29,0,0,0,4.35,2.74,25.32,25.32,0,0,1,4.54,1.88,26.06,26.06,0,0,1,3.36,2c.95.78,2.32,1.43,3.65.43a3,3,0,0,1,2.3-.37c4,.49,7.79-.69,11.55-1.89,2.6-.83,5.22-1.61,7.83-2.41Zm160,55.2c-1.95,1.4-3.47,2.49-4.47,4.38A31.8,31.8,0,0,1,275,448c-1.92,2.47-3.07,5.33-4.77,7.89a4,4,0,0,0-.57,3.62c.32,1,.45,2,.7,3.07.55,2.32.77,4.72,1.14,7.09a9.21,9.21,0,0,0,.4,1.11c1.35,4.38,4.13,7.9,6.85,11.45.27.36.52.87,1.11.75a.93.93,0,0,0,.75-1.06c-.2-1.71,1.94-2.77,1.26-4.61,0-.08.19-.24.28-.37,1.73-2.49,2.35-5.43,3.37-8.21a2,2,0,0,0-.12-1.58,42.27,42.27,0,0,1-2.89-8.65,44.24,44.24,0,0,1-.55-9.38C282.05,445.89,282.16,442.7,282.18,439.1ZM17.45,333c2,2.1,3.77,4.15,5.71,6.07,1,1,1.75,2.25,3,3a35.57,35.57,0,0,1,5.74,4.45c1.4,1.32,2.68,3.19,4.94,3.24a76,76,0,0,0,8.54,0,72.18,72.18,0,0,0,9.86-1.64c1.44-.33,2.82-1.07,4.39-.85a8.76,8.76,0,0,0,3.86-.64,3.69,3.69,0,0,0-2.75-1.74,18.58,18.58,0,0,1-5.51-1.72,59.47,59.47,0,0,0-6.65-2.47,47.31,47.31,0,0,1-8-3.13c-2-1.08-4.38-.72-6.31-1.74-2.85-1.52-6.15-1.24-9-2.54a1,1,0,0,0-.91.07c-1.41,1.1-2.68.37-4-.22C19.52,332.78,18.72,332,17.45,333Zm287.48,98.78c1.76-1.94,3.05-4,4.95-5.55a17.1,17.1,0,0,0,2.8-2.9c.51-.66,1-1.42,1.42-2.07,1.07-1.58,2.76-2.64,3.54-4.38a11.65,11.65,0,0,1,2.42-3.18c1.22-1.3,2.47-2.56,3.68-3.87.8-.87,2-1.6,2.43-2.55,1.39-3,4.17-4.82,6.13-7.33a83.46,83.46,0,0,1,9.49-10c.89-.82,2.31-1.56,2.55-3.35-1.34.55-1.94,1.67-2.84,2.18-2.44,1.39-4.39,3.36-6.58,5-2.45,1.87-4.71,4-7.4,5.51a49,49,0,0,0-6.06,4.35c-3.73,2.93-7.25,6.12-11.35,8.57a4.05,4.05,0,0,0-1.52,1.47,33,33,0,0,0-3,8.15c-.53,2.5-.58,5.15-1,7.73A2.56,2.56,0,0,0,304.93,431.82Zm-21.18,20.57a7.63,7.63,0,0,1,.15,1.28c-.42,3.74,1.32,7.06,2.07,10.57.09.42.28,1,.87,1a.88.88,0,0,0,.77-.82c.14-1.8,1.47-3,2.22-4.52,1.14-2.28,2-4.73,3.48-6.83a3.11,3.11,0,0,0,.7-2.45,90,90,0,0,1-.92-11.12,43.46,43.46,0,0,1,.52-10.81c.12-.61.31-1.35-.43-1.67-.57-.24-1,.32-1.49.59a1.75,1.75,0,0,0-.42.56,50.12,50.12,0,0,1-6,6.72c-1.25,1.26-2.08,3.62-1.24,4.74s.73,2.49.57,3.81C284.2,446.5,283.55,449.57,283.75,452.39Zm-58-251.62c2.11.2,4-1,6-1.39a23.68,23.68,0,0,0,3.33-1.19,1.3,1.3,0,0,0,1-.92c.58-2,1.19-3.89,1.65-5.89.61-2.63,1-5.37,2.28-7.78,1.61-3.1,2.89-6.38,5.08-9.38a37.3,37.3,0,0,0-10.7,2.8,5.63,5.63,0,0,0-3.31,3.12c-1.29,2.77-2.39,5.63-3.88,8.32-.67,1.2-1.47,2.67-1.34,3.92C226.15,195.15,225,197.82,225.74,200.77Zm32.85-28.06c-3-.31-5.48.53-8,.73a5.32,5.32,0,0,0-4.25,2.67c-1.12,1.76-1.32,4-2.56,5.58-2.5,3.24-2.26,7.33-3.63,10.92-.39,1-.37,2.27-.85,3.29a2,2,0,0,0,2.24.54c.87-.18,1.67-1,2.4-.87,2.23.27,3.87-1.49,6-1.45.57,0,.85-.56,1-1.15a52.51,52.51,0,0,0,2.35-7.91c.4-2.46.61-5.08,2.08-7.19C256.52,176.31,257,174.46,258.59,172.71ZM53.17,330.83c2.51,1.75,3.13,4.19,4.45,6.16.18.27,3.47,4.84,3.75,4.92a13.66,13.66,0,0,1,5.06,2.65,2.23,2.23,0,0,0,2.07.23c1.09-.43,1.62,0,2,.95.11.29.24.66.47.79a47.84,47.84,0,0,0,6.52,3.17c.89.33,1.31-.23,1.46-1.33.58-4.26-1.4-7.81-3-11.47-.1-.24-.24-.42-.48-.44-2.14-.14-3.88-1.68-6.06-1.7a15.15,15.15,0,0,1-4.42-.87c-3.39-1.1-7.09-1.16-10.28-3C54.45,330.79,54.09,330.88,53.17,330.83ZM95.81,359c.76-4.7.7-8.81-1.45-12.68a2.62,2.62,0,0,1-.19-2.1c.34-1-.12-1.44-1.06-1.64a16.27,16.27,0,0,1-3.19-.84c-3.19-1.42-6.53-2.44-9.68-3.94-.42-.2-.89-.48-1.32-.07a1,1,0,0,0,0,1.33,18.16,18.16,0,0,1,2,9.82,2.93,2.93,0,0,0,2.1,3.21,9.5,9.5,0,0,0,1.78.56,10.59,10.59,0,0,1,5.13,2.51C91.57,356.68,93.71,357.41,95.81,359ZM16,329.28c1.91.82,4.1.56,5.8,1.82.21.16.63.08.94,0,2.39-.41,4.64.36,7,.66,3.94.5,7.6,1.94,11.39,2.85,4.6,1.11,8.94,3.28,13.37,5.05.47.18.8.49,1.26,0a11.71,11.71,0,0,0-2-5.13c-1.14-1.61-2.87-2.27-4.17-3.56A3.88,3.88,0,0,0,47,329.69c-6-.54-11.86-1.66-17.93-1.52q-6.21.13-12.39.61C16.48,328.79,16.31,329.06,16,329.28Zm279.5,118.94c.91-1.57,1.59-2.8,2.32-4s1-2.83,2-3.93c2.9-3.12,2.43-7.18,2.64-10.84.2-3.51.14-7,1.61-10.24a1.4,1.4,0,0,0-.1-1.54,2.45,2.45,0,0,0-2,.77c-1.64,1.36-3.2,2.82-4.78,4.24a4.69,4.69,0,0,0-1.58,3.24c-.22,3-.71,5.95-.65,8.91C295.16,439.14,294.64,443.47,295.53,448.22Zm-24.45-276a3.89,3.89,0,0,0-.64-.32c-2.51-.61-5,.51-7.48.26a1.89,1.89,0,0,0-1.52,1c-2.23,3.41-4.47,6.79-5.06,11a11.77,11.77,0,0,1-.81,3.16,25.27,25.27,0,0,0-1.08,4.36c2.85-1.31,5.21-3,7.84-4.25a3.19,3.19,0,0,0,2-3.11,11.88,11.88,0,0,1,2.26-6.35C267.89,176,269.66,174.36,271.08,172.26Zm-28.54,39.27c-2.89-2.23-5.35-5-8.5-6.93-.38-.23-1.07-.62-.9-1.23.34-1.2-.44-1-1-.84a44.77,44.77,0,0,1-10.75,2c-2,.22-3.93.6-6.08.94a7.18,7.18,0,0,0,5.12,2.74,50.81,50.81,0,0,1,6.72,1.69c4.26,1.24,8.45,2.61,13,2.67A2.57,2.57,0,0,0,242.54,211.53ZM243.88,199c1.26,1.32,2.62,1.91,3.62,3.06,2,2.36,4.33,4.47,7.52,5.33a4,4,0,0,1,2,1.15,1.41,1.41,0,0,0,1.75.42c2.09-1.43,4.87-1.76,6.49-4a4.56,4.56,0,0,0-2.43-1.15,7.57,7.57,0,0,1-3.55-1.27c-2.42-1.62-5-3-7.18-5-.51-.47-1.08-.83-1.72-.5C248.42,198.14,246.2,198.37,243.88,199Zm24.42-10.8c.84.34,1.2.62,1.56.61A18,18,0,0,1,276,190.1c2.05.71,4.32,1.13,6-1.24a3,3,0,0,1,1.68-1.23,2,2,0,0,0,1.38-1.2c.3-.74,1-.94,1.51-1.38a23,23,0,0,0,4.06-4.24c-3.58,0-6.83.12-9.69,1.19C276.72,183.58,272.8,186,268.3,188.2Zm32.13-20a28.52,28.52,0,0,0-6.54.38,48.11,48.11,0,0,1-6.68,1c-1.31.06-2.8.26-3.65,1.75a6.27,6.27,0,0,1-2.21,1.72c-2.93,1.91-4.54,4.79-5.92,8.08a9,9,0,0,0,3-1.36,73.63,73.63,0,0,0,7.37-4.08,52,52,0,0,1,6.84-3.74C295.31,170.83,297.85,169.45,300.43,168.17ZM234,202c2.7,2,5.31,3.44,7.47,5.52a7.21,7.21,0,0,0,3.08,2.11,2.17,2.17,0,0,1,1.82,1.63.87.87,0,0,0,1.16.56,67.14,67.14,0,0,1,7.05-1.86,16.38,16.38,0,0,1-4.87-2.84c-1.27-1.21-2.84-2.06-3.92-3.55a24.05,24.05,0,0,0-3-3c-.4-.37-.83-.91-1.41-.75C239.05,200.54,236.53,200.78,234,202Zm19.35-5.88a33,33,0,0,0,10.33,5.62c1.06.38,2.27.24,3.25,1.05a1.21,1.21,0,0,0,1.56,0c1.43-1.39,3.38-2.22,4.47-4a3.46,3.46,0,0,0-1.94-.42,14.57,14.57,0,0,1-5.53-.94,35.48,35.48,0,0,1-7.15-3.53c-.27-.17-.46-.33-.82-.1C256.24,194.6,254.6,194.87,253.38,196.13Zm13.07-10.85c1.67.15,2.83-.89,4.11-1.59s3.46-1.1,3-3.52a.42.42,0,0,1,.08-.22c1.86-2.48,2.9-5.56,5.44-7.57.63-.51,1.53-.73,2-1.69a23.89,23.89,0,0,0-6.46.59,2.5,2.5,0,0,0-1.57,1c-1.51,2.09-3.15,4.08-4.57,6.23S266,182.74,266.45,185.28Zm11.73,7.77c-2.87-1.16-5.43-2.35-8.36-2.18a4.67,4.67,0,0,1-2-.68c-.9-.37-1.94-1.47-2.74-.54s-2.25.06-2.87,1.19c-.48.86-1.43,1.15-2.24,1.69a25.06,25.06,0,0,0,11.76,3.73c.54,0,1.12-.21,1.59.23,1.21,1.13,2.13-.05,2.48-.7A11.29,11.29,0,0,1,278.18,193.05Zm8.12-13.82a3.4,3.4,0,0,0,2.32-.21,3.48,3.48,0,0,1,3,0c1,.64,1.4.07,2-.43,2.23-1.85,3.82-4.26,5.68-6.5C297.46,172,289.88,176.19,286.3,179.23ZM259.22,311.45a4.27,4.27,0,0,0-.92,2.42c0,.66,1.33,1.4-.17,1.93a1.47,1.47,0,0,0,.1.22,3.47,3.47,0,0,0,1.81,1.45c.79.34.86-.45,1.21-.8a.93.93,0,0,0,.33-1.05c-2.17-.07-2.3-.14-1.3-1.93C261.09,312.25,260.17,312,259.22,311.45Zm-58.1-267c-.62-.93,0-1.6.17-2.34.26-1.11-.14-1.72-1.19-1.79-.57,0-1.35-.45-1.73.23a1.55,1.55,0,0,0,.42,1.74C199.43,43.06,199.61,44.25,201.12,44.47Zm55.49,269.7c.19-1.07.35-2,.54-3.11-1.23.18-2.28-.55-3.49.08C254.4,312.44,255.07,313.63,256.61,314.17ZM205.21,43.05c.08.3.23.74.54.61a1.36,1.36,0,0,0,.79-1.09c0-.36-.26-.48-.62-.46C205.31,42.16,205.11,42.48,205.21,43.05ZM74.29,160.7l-.08.28a3.5,3.5,0,0,0,.9.1c.3-.05.82.55.87-.21,0-.55-.4-.57-.81-.46A9.06,9.06,0,0,0,74.29,160.7ZM202.76,44.8c.45-.53.4-.82-.36-.79-.51,0-1,.23-1,.77a.93.93,0,0,0,1.14.93C203.36,45.62,203.11,45.18,202.76,44.8Zm-124.7,416c.44-.18.9-.36.82-1a.33.33,0,0,0-.49-.29,1.17,1.17,0,0,0-.73.87C77.53,460.79,77.83,460.76,78.06,460.81ZM83.5,159.88c-.62-.21-1.08-.3-1.34.28,0,.07.09.31.18.33C82.8,160.63,83,160.25,83.5,159.88ZM209.75,44.61c0-.48-.35-.47-.66-.47s-.8.19-.82.61.4.35.67.32S209.74,45.15,209.75,44.61ZM79,160.53a4.14,4.14,0,0,0-.89-.26c-.2,0-.48,0-.35.38a.43.43,0,0,0,.51.29A4,4,0,0,0,79,160.53Zm1.77,298.09c.21-.07.49-.09.45-.4,0-.07-.24-.19-.34-.16s-.51.16-.54.29C80.26,458.65,80.54,458.65,80.76,458.62Zm172,165.81.17-.16a1.3,1.3,0,0,0-.31-.16s-.1.1-.15.15Z" transform="translate(-10.53 -31.63)"/></g><g id="Layer_2" data-name="Layer 2"><path class="cls-2" d="M217.91,57a10.82,10.82,0,0,1,.19,7.38c-.62,2.08-.85,4.32-1.75,6.26-.65,1.4-.85,3-1.8,4.23-1.34,1.75-1.76,4.07-3.47,5.59-.77,3.18-3.24,4.14-6,4.67-1.39.26-2.55,1.08-4,1.26a15.63,15.63,0,0,1-9-1.14,1.66,1.66,0,0,0-1.12-.06c-1.32.23-2.71.65-3.66-.82a.47.47,0,0,0-.38-.17c-3.13.42-4.35-2.36-6.15-3.93-1.12-1-2-2.4-3.2-3.45a12.84,12.84,0,0,1-4.65-10.52,27.5,27.5,0,0,1,.63-4.89c.47-2.16.32-4.34.94-6.52A25.79,25.79,0,0,1,180,45a18.9,18.9,0,0,1,6.76-5c1.7-.76,3.76-2.11,5.74-.23.33.31.74.17,1.13.2,1.88.09,1.86.23,2.65,2.05,1.35,3.11,3.27,5.7,6.92,6.39.54.1,1.05.36,1.58.51,2.81.79,6.33.59,8.64-1.88,2.09,2.76,3.77,5.51,4,8.92C217.42,56.33,217.76,56.67,217.91,57Zm-101,401.19a9.75,9.75,0,0,1-1.78-2.9,7.07,7.07,0,0,0-2.71-2.91c-2.5-1.64-5.41-2.5-8-4a3.28,3.28,0,0,0-2.71-.17c-2,.75-4.43-.21-6.06,1.77-.08.1-.3.09-.46.12-2.56.37-4.74,1.74-7,2.8a1.91,1.91,0,0,0-.94,1.19c-.38.95-.15,2.19-1,2.85A10.51,10.51,0,0,0,84,460c-1.43,2.16-3.08,4.16-6,4.42-.47,0-1-.09-1.38.26-1.5,1.35-3.21,1.15-5.1.58-.16.66-.27,1-.33,1.43a5.06,5.06,0,0,0-.06.95,22,22,0,0,0,4.34,12.59c1,1.32,2,2.6,3.11,3.86A8.58,8.58,0,0,0,82,487a4.2,4.2,0,0,1,1.38,1.23,13.82,13.82,0,0,0,8.74,4.52,7.75,7.75,0,0,1,2.51.59c1.91.91,3.83,1.28,5.69,0,.77-.52,2,.31,2.45-1,.41-1.08,1.69-.81,2.41-.95a9.31,9.31,0,0,0,5.87-4.07c1-1.31,1.62-2.85,3.11-3.71a1.15,1.15,0,0,0,.45-.5,75.35,75.35,0,0,0,3.2-12.69,19.43,19.43,0,0,0-.25-9.3C117.26,460.21,117.66,459,116.87,458.22ZM275.45,127.74a26.55,26.55,0,0,1-.63-3.74c-.33-1.58-1.62-2.65-2.16-4.1-.83-2.24-1.94-3.73-4.76-3.68-2.62,0-4.58-1.81-6.57-3.4s-2.74-3.78-3.52-6c-.36-1,.32-2.35-.64-3.14s-2.34.07-3.32-.44a4.22,4.22,0,0,0-1.09,0c-1.89.54-3.81,1-5.65,1.73a9.78,9.78,0,0,0-3.52,1.88,58.82,58.82,0,0,1-5.11,4,17.29,17.29,0,0,0-3.76,4.45c-.44.7-.36,1.5-.8,2.18-1.22,1.88-1.42,4.1-2,6.19-.48,1.65-.08,3.24-.36,4.87-.5,3-.92,5.91.17,8.94a13.83,13.83,0,0,0,6.81,7.58c1,.45,2.09.42,3.11.91,4.42,2.09,8.86,3.85,14,2.61a74.19,74.19,0,0,0,7.75-2.78,14.35,14.35,0,0,0,3.27-1.23c2.62-1.84,5.34-3.73,6.62-6.8S276.81,131.52,275.45,127.74ZM78,197.88a15.77,15.77,0,0,0,5.15,3.06,17.59,17.59,0,0,0,9.46.25c4-1.05,7.76-2.67,10.36-6.19.51-.69,1.63-1.22,1.56-2-.15-1.58.91-2.6,1.31-3.9.47-1.47,1.66-2.72,1.41-4.43,1.47-1,1.45-2.6,1.82-4.1a11.54,11.54,0,0,0-1-8.44c-.5-1-1.39-1.87-1.52-2.77a10.29,10.29,0,0,0-2.37-4.77,14.65,14.65,0,0,0-11-5.84,3.39,3.39,0,0,0-3.34,1.37,5.42,5.42,0,0,1-3.54,2.22,35.21,35.21,0,0,1-8.55,1.54c-2.29.09-4.36.33-5.85-1.9-.58-.87-1.39-.79-2.2,0A33.43,33.43,0,0,0,65.09,167c-.9,1.3-1.57,2.58-1.23,3.8a42.71,42.71,0,0,0,2.35,11.42c.36,1,.43,2,1.48,2.82.58.45.9,1.84,1.23,2.76.89,2.44,3,3.91,4.17,6.08C74.13,195.82,76.38,196.55,78,197.88ZM265.54,320.29a4.32,4.32,0,0,1-.91.19,8.45,8.45,0,0,1-8.36-1.61c-1.26-1.06-2.72-1.87-3.33-3.53a1.12,1.12,0,0,0-.9-.73c-1.21-.19-1.45-1.13-1.62-2.07-.24-1.35-.8-2.72.2-4.06-.4-.15-.63-.33-.82-.3-2.56.4-5.43-.63-7.59,1.65-.09.09-.3.09-.45.12-2,.39-3.58,1.77-5,3a13.24,13.24,0,0,0-3,3.16,22.41,22.41,0,0,1-1.78,2.52,8,8,0,0,0-2.18,4.81c-.05,1.12.36,2.34-.08,3.37-.77,1.86,0,3.48.68,5a58.5,58.5,0,0,0,3.17,6.82,16.13,16.13,0,0,0,5,5.31c1.62,1.07,3.86,1.35,5.92,1.61.45.06.86-.11,1.33.22,2.11,1.5,4.7,1.64,7.07,2.4a3.48,3.48,0,0,0,1.88-.12c1.6-.41,2.89-1.49,4.34-2.08,3.94-1.61,5.83-5.09,8.08-8.19,1.72-2.37,2.37-5.34,2.95-8.19a19.27,19.27,0,0,1,.7-3.68c.81-2,.18-3.57-1.1-5C267.93,318.94,267.93,319,265.54,320.29Zm-123,75.51,1.12.87c-.23-.78-.37-1.29-.51-1.8C142.74,395.05,142.66,395.44,142.53,395.8ZM78.26,160.94a4,4,0,0,0,.73-.41,4.14,4.14,0,0,0-.89-.26c-.2,0-.48,0-.35.38A.43.43,0,0,0,78.26,160.94Zm2.07,297.41c-.07.3.21.3.43.27s.49-.09.45-.4c0-.07-.24-.19-.34-.16S80.36,458.22,80.33,458.35Z" transform="translate(-10.53 -31.63)"/></g></svg>