<svg xmlns="http://www.w3.org/2000/svg" viewBox="0 0 440.07 696.66"><defs><style>.cls-1{fill:#28261d;}.cls-2{fill:#fac000;}</style></defs><g id="Layer_1" data-name="Layer 1"><path class="cls-1" d="M449.71,204.5c-2.14-2.13-5-2.91-7.69-4a15.74,15.74,0,0,0-4.71-1.4c-3.18-.25-6.24-1.23-9.52-1.13-2.77.08-5.59,0-8.38,0s-5.41.44-8.09.61c-4,.26-7.77,1.38-11.72,1.58a.94.94,0,0,0-.45.16c-1.82,1.17-4,1.07-6,2-1.42.67-3.2.75-4.45,1.63-2.5,1.75-5.49,2-8.21,3.05a47.19,47.19,0,0,1-6.88,2.43c-.2.05-.38.29-.54.46a3.73,3.73,0,0,1-2.81,1.14c-.78,0-1.39.08-1.78.85a.49.49,0,0,1-.8.18.53.53,0,0,1,.22-.78c1.2,0,1.42-1,2-1.73a25.46,25.46,0,0,1,5-4.6c.86-.56,2.2-.85,2.51-1.92.38-1.3,1.39-1.9,2.23-2.7a40.53,40.53,0,0,0,3.93-3.72c1.32-1.63,2.91-3,4.27-4.63a41.54,41.54,0,0,1,4.8-4.86c1-.86,1.15-2.29,2.34-2.89a3.73,3.73,0,0,0,1.92-2.59,2.35,2.35,0,0,1,1-1.58c1.83-.85,1.86-3.16,3.51-4.13a2.39,2.39,0,0,0,.71-1.21,14.26,14.26,0,0,1,1.76-3.08c.82-1.23,1.57-2.52,2.44-3.71,1-1.35,1.25-3.12,2.51-4.29s1.39-2.88,2.45-4.21c1.91-2.4,1.75-5.47,1.76-8.4a.76.76,0,0,0-.17-.39c-1.16-1.48-4.28-2.08-5.56-.68-2.05,2.26-5,2.57-7.4,4-2.05,1.17-4.53,1.54-6.26,3.27-2.41,2.43-6,3.19-8.29,5.74-.24.26-.73.28-1.08.47-1.24.7-2.75,1.18-3.64,2.19a15.49,15.49,0,0,1-5.35,4.2,1.91,1.91,0,0,0-.73.56,14.35,14.35,0,0,1-4.57,4.1c-1.88,1-2.95,3-4.71,4.14-.56.38-1.3.62-1.7,1.2-1.23,1.82-2.34,3.74-4.59,4.53-.25.09-.22.38-.34.56-1.48,2.26-2.87,4.61-5.4,5.91a1.83,1.83,0,0,0-.89.74,11.38,11.38,0,0,1-2.9,3.6c-1.23,1.25-2.69,2.32-3.53,4a29.78,29.78,0,0,1-2,2.81c-.48.75-1.48.5-1.65,1.1-.7,2.53-3,4-4.11,6.2a21.86,21.86,0,0,1-2.8,3.49c-.21.26-.44.48-.79.4s-.55-.57-.47-1a8.17,8.17,0,0,1,.56-1.82,7.83,7.83,0,0,0,.74-2.25c.41-2.65.83-5.3,1.21-7.94.36-2.43.32-5,1.11-7.25,1-2.73,1.11-5.59,2-8.32a29.81,29.81,0,0,0,.93-7.5c.17-3.57.92-7.09,1-10.71.09-3.15.26-6.32.4-9.49,0-1.09-.21-2.23.44-3.25a1.07,1.07,0,0,0,0-.91c-.56-1.92.17-4.1-1.16-5.88,0-3.1-1.49-5.89-2-8.91a73.48,73.48,0,0,0-2.31-8.55c-.75-2.64-1.74-5.19-2.61-7.76-.92-2.73-1.53-5.59-3-8.18a30.86,30.86,0,0,1-2.22-5.16,17.68,17.68,0,0,0-.73-2.93c-.87-1.67-2.05-1.87-3.27-.46a4.75,4.75,0,0,0-.92,1.63c-1.28,3.53-2.28,7.16-3.48,10.71-.88,2.62-1.35,5.37-2.54,7.88a38.4,38.4,0,0,0-1.73,5.11c-.52,1.66-.34,3.44-.75,5.07a36.67,36.67,0,0,0-.86,5.56,68.37,68.37,0,0,0-.38,8.21c.08,2.63-.52,5.2-.31,7.82s.73,5.6.08,8.27c-.48,1.94,0,3.68,0,5.5a2.18,2.18,0,0,1,0,.72c-.68,2.28,0,4.53.27,6.75.53,4.77,1.84,9.42,2.74,14.13.44,2.27.53,4.61.78,6.95-.65-.06-.8-.43-1-.75-.85-1.15-.7-2.73-1.7-3.82a38.77,38.77,0,0,1-5.16-7.57,5.69,5.69,0,0,0-2.45-2.76,4.21,4.21,0,0,1-1.64-1.68,73.33,73.33,0,0,0-5.72-7.49c-2.56-3.21-5.5-6.13-8.36-9.09-1.75-1.81-3.19-3.86-5.12-5.56s-3.67-3.51-6.07-4.69c-2.69-1.32-5.62-2-8.25-3.49-1.53-.87-4.13,0-4.57,1.21a8.68,8.68,0,0,0-.29,5.38,135,135,0,0,0,5.61,14.77,16.72,16.72,0,0,0,2.62,4.45c1,1.12,2,2.28,2.86,3.5,1,1.4,1.86,3,2.94,4.29A91.71,91.71,0,0,0,290,195c2.06,1.92,3.86,4.12,5.82,6.12,1.61,1.64,3.3,3.26,5,4.87.06.2.23.47.16.58-.2.3-.5.2-.75,0a3.93,3.93,0,0,1-.92-.1c-2.3-.81-4.88-.53-7.06-1.79-1.81.94-3.56-.35-5.44-.13-2.63.32-5.25-.9-7.94-.8s-5.17-.65-7.8-.35-5,.38-7.56.66-4.73,1.39-7.23.84a2.32,2.32,0,0,0-1.17.2c-4.08,1.46-8.47,1.58-12.58,2.92-1.08.34-1.91,1.21-3,1.33a13.33,13.33,0,0,0-5.2,2.2c-2.33,1.35-4.64,2.69-6.86,4.24a24.14,24.14,0,0,0-3.2,2.38c-2,2-1.73,3.86.41,5.63,1,.82,2.22.71,3.21,1.48,1.41,1.09,3.49,1.07,4.75,2.55,2.21-.13,3.72,2,6,1.8a1.25,1.25,0,0,1,.87.36c1.09,1,2.73.32,3.83,1.25,2.55-.38,4.79,1.06,7.3,1.18,2.33.12,4.61,1.07,6.94,1.32a170.07,170.07,0,0,0,17.48.87c2.6,0,5.22.46,7.8.26,2.78-.22,5.47.78,8.23.32.14,0,.44.24.47.4s-.12.55-.26.59c-1.35.42-2.34,1.46-3.73,1.88a56.15,56.15,0,0,0-11.29,5.37c-.56.32-.82.93-1.42,1.25-3.21,1.75-6.48,3.37-9.24,5.88-3.24,2.95-6.81,5.53-9.42,9.12a4.25,4.25,0,0,1-.8.89,17.06,17.06,0,0,0-3.63,4.22,36.06,36.06,0,0,1-4.71,5.63c-1,.9-1.63.54-2-.17a37.86,37.86,0,0,1-3.14-6.31,35.15,35.15,0,0,0-3.35-7.9c-2.2-3.31-3.5-7-5.24-10.5-1.21-2.45-2.94-4.56-4.14-7-.73-1.5-2-2.87-2.38-4.56a11.36,11.36,0,0,0-2.36-4.34c-2-2.51-2.89-5.6-4.46-8.32-1.3-2.27-2.18-4.81-3.79-6.94-1.44-1.91-1.42-2.58.7-3.34a3,3,0,0,0,2.16-2.78,4.46,4.46,0,0,1,1.25-2.5c1-1.2,1.14-1.25.87-2.81a4.5,4.5,0,0,1,.34-2.72,4.72,4.72,0,0,0,.41-1.6c.18-2.87.41-5.75.4-8.62,0-1.31.44-2.64.13-3.91a41.24,41.24,0,0,1-.71-8.13,25.18,25.18,0,0,0-2.33-9.71c-.85-1.78-1.54-3.38-1.22-5.38a1.59,1.59,0,0,0-1.7-1.85,1.7,1.7,0,0,0-1.59,1.94c0,.62.33,1.28.2,1.85-.59,2.69-.49,5.5-1.09,8.12-.9,4-1.3,8-2.49,12a35,35,0,0,0-1.4,6.46c-.31,2.8-.6,5.6-1,8.38-.18,1.13-.51,1.3-1.48.67a1.48,1.48,0,0,1-.77-1.12,3.47,3.47,0,0,0-.74-1.68c-2.44-3.12-4.58-6.45-6.73-9.77-1-1.51-1.65-3.42-2.82-4.53-1.72-1.63-2.46-3.71-3.27-5.58-1.61-3.72-4-6.86-6.28-10.09-1-1.48-2-3-3.08-4.49a37.47,37.47,0,0,0-3.36-4.34c-1.07-1.11-1.57-2.67-2.67-3.59-3.16-2.63-5.35-6.11-8-9.19a62.84,62.84,0,0,0-7.59-7.54,28.07,28.07,0,0,1-4.09-4.62c-.6-.79-.17-1.16.63-1.25a3.41,3.41,0,0,1,.93.15c2.89.54,6-.34,8.72,1.31a67.49,67.49,0,0,1,8.41-.21c2.35,0,4.72-.08,7.08-.34,1.95-.21,3.92-.68,5.92-.25,1,.23,1.57-.94,2.62-1a25.62,25.62,0,0,0,9.34-2.18c1.37-.56,2.9-.22,4.09-1.08,2.56-1.83,5.69-2.12,8.5-3.26a20.44,20.44,0,0,0,5.08-2.58,2.9,2.9,0,0,0,1.08-3.76,5.77,5.77,0,0,0-2-2.49,51.28,51.28,0,0,0-8.68-4.08c-2.49-1-5.23-1.16-7.82-2a40.17,40.17,0,0,0-9.09-1.26c-.89-.06-1.67.37-2.72,0a14,14,0,0,0-5.73-.74c-2,.13-4-.31-5.86.23s-3.85-1.06-5.65.36c-.12.09-.49,0-.66-.15a1.3,1.3,0,0,0-1.75,0,1.85,1.85,0,0,1-1.83.09c-1.66-.53-3.14,0-4.67.49-1.07.3-2.16.52-3.26.74-.36.07-.83.16-1.07-.27s0-.91.41-1.23c1.34-1.08,2.77-2.06,4-3.25a46.82,46.82,0,0,0,4.17-3.82,27,27,0,0,1,5.07-4.27,22.07,22.07,0,0,0,2.88-2.33,4.54,4.54,0,0,1,1.52-1.15c2.07-.78,3-3.06,5.11-3.78,2.06-2.81,5-4.75,7.59-6.9,3.61-3,6.18-7,10.2-9.5,1.42-3.3,5.22-4.52,6.76-7.72.09-.2.38-.28.55-.44a33.2,33.2,0,0,0,4.4-4.86c1.72-2.43,3.41-4.87,5-7.42a4.14,4.14,0,0,0,.81-3.47,2.54,2.54,0,0,1,0-1.42c.44-1.29-.28-2-1.24-2.46a5.41,5.41,0,0,0-3.61-.7,30.29,30.29,0,0,0-5,1.24c-2.69.94-5.87.58-8.06,2.93-.54.58-1.53.28-2.13,1-1.06,1.2-2.63,1.67-4,2.51-2.72,1.76-6,2.23-8.72,4.37-2.22,1.78-4.9,3-7.23,4.78-1.05.8-1.85,1.84-3,2.58a62.34,62.34,0,0,0-7,5.6c-1.69,1.51-2.85,3.63-5.22,4.37a2.68,2.68,0,0,0-1.21,1.11c-1,1.6-2.6,2.63-3.92,3.92-2.74,2.7-5.16,5.69-7.61,8.63a92.57,92.57,0,0,1-6.46,7.51c-.45.44-.75,1-1.41,1.25-.27.09-.47.47-.84.23a1,1,0,0,1-.44-1c.69-1.32.25-2.68.15-4A45.5,45.5,0,0,0,141,88.1a15.2,15.2,0,0,1-.59-4.59,11,11,0,0,0-.3-3.74c-.17-.82-.18-1.75-.32-2.47a37.21,37.21,0,0,0-.65-4.3q-1.56-4.83-2.8-9.77c-.33-1.33-1.08-2.62-.69-4.09-1.77-2.88-1.07-6.37-2.36-9.41-.48-1.13-.67-2.63-1.2-3.66A47.07,47.07,0,0,1,130,41.29c-.61-1.58-1-3.16-2.25-4.39-.15-.15-.13-.46-.22-.67-.77-1.78-1.07-3.75-2.75-5.11a2.33,2.33,0,0,1-1-2.28c0-.2,0-.62-.08-.63-1.66-.38-1.6-2.05-2.36-3.09-2.33-3.19-4.88-6.2-7.48-9.16-.82-.94-2.88-1.26-3.4-.43a9.62,9.62,0,0,0-1.67,2.78c-.55,2.41-.35,5-1.72,7.21a.55.55,0,0,0,.06.44c.54,1-.07,2-.08,3.05,0,3-1.36,5.91-1.32,9,0,2.73-.64,5.43-.18,8.2A28.3,28.3,0,0,1,105.9,52a29.18,29.18,0,0,0,1.1,9.2c1,3.45,2.44,6.77,3.38,10.25.68,2.51,1.61,5,2.27,7.43s2,4.49,2.57,6.82c.35,1.32,1.82,2.56.71,4.28a12.38,12.38,0,0,1-2.2-.85c-2.3-1.41-4.15-3.43-6.53-4.77-1.36-.77-2.71-2-4-2.34a19.24,19.24,0,0,1-3.61-1.37c-2.26-1-4.35-2.49-6.81-2.87-2.69-.42-5-1.82-7.48-2.68a49.5,49.5,0,0,0-6.56-1.78,58.75,58.75,0,0,1-7.07-1.72,4.74,4.74,0,0,0-1.16-.26c-5-.26-10-1.4-15-1.37a65.32,65.32,0,0,0-8,.63c-3.21.41-5.79,2.53-8.9,3.21-.18,0-.37.3-.46.5a2.19,2.19,0,0,0,.06,2.6c1,1.39,1.79,3,3.29,3.84a16.73,16.73,0,0,1,3,1.85c1,.82,1.92,2,3,2.18,3.19.6,5.52,2.56,8,4.31.13.09.25.23.38.26,1.74.28,3,1.41,4.35,2.39a11.61,11.61,0,0,0,4.6,2.37,4.86,4.86,0,0,1,2.32,1.16,5.12,5.12,0,0,0,2.3,1.24,16.34,16.34,0,0,1,4.36,1.86,54.72,54.72,0,0,0,5.54,2.5c1.74.73,3.71,1.14,5.53,1.89s3.87,1,5.51,2.21a1.51,1.51,0,0,0,1.16.14,9.82,9.82,0,0,1,2.31.32c2.39.27,4.55,1.48,7,1.43a3.12,3.12,0,0,1,2.77,1.45c-2.2.08-4.37.58-6.3.11-2.46-.59-4.89.72-7.24-.33-1,.92-2-.22-3,.06a19.5,19.5,0,0,1-7,.6,6.5,6.5,0,0,0-3.39.29,7.73,7.73,0,0,1-3.92.65,15.76,15.76,0,0,0-4.93.54,2.55,2.55,0,0,1-1.63.14c-1.16-.58-2.25-.09-3.27.16a14,14,0,0,1-2.56.4,50.92,50.92,0,0,0-8.85,1.29c-3.65.86-7.34,1.53-11,2.22a20.71,20.71,0,0,0-6.17,2.15c-2.08,1.16-4.35,1.84-6.42,3-3.2,1.77-6.74,2.91-9.37,5.63-.15.16-.43.37-.58.32-1.18-.34-1.65.69-2.31,1.23a3.54,3.54,0,0,1-1.33.87c-1.72.49-1.88,2.55-3.27,3.42-.2.12-.14,1,.08,1.36.7,1.13,1.35,2.18,3,2.32a22.37,22.37,0,0,1,5.57,1.11,30.44,30.44,0,0,0,8.5,1.81c2.59.11,5.16.59,7.81.48,1.72-.06,3.52.32,5.33.18.73-.06,1.36-.53,2.08-.38,3.43.7,6.85-.16,10.25-.32,2.27-.1,4.62-.53,6.91-.77,4.47-.46,8.89-1.26,13.36-1.7.9-.09,1.77.36,2.75-.17,2.14-1.16,4.66-.84,6.94-.93a44.73,44.73,0,0,0,7.85-1.14c2.7-.58,5.37-1.67,8.12-2.15,2-.36,3.93-1.25,5.94-1.57s3.83-1.57,6-1.24a.91.91,0,0,0,.66-.25c1.78-1.75,4.13-2,6.39-2.34,1.31-.21,2.47-1.26,4.12-.77a30.56,30.56,0,0,0-4.57,3.58c-2.06,2-4.13,3.93-6.29,5.8s-4.39,3.33-6.34,5.25-4.59,3-6.08,5.41c0,.06-.14.08-.21.12a11.19,11.19,0,0,0-3.77,3.66c-1.63,2.3-3.55,4.36-5.19,6.64a38.86,38.86,0,0,0-4.2,6.28c-1.1,2.42-2.71,4.54-3.51,7.16a44.87,44.87,0,0,1-3.92,8.69c-.71,1.27-.5,2.59-1,3.84a45,45,0,0,0-2.58,7.51c-.4,1.93-1.24,3.78-1.27,5.76S73,198,73.17,200c.25,3.24-.29,6.52.34,9.81.25,1.27.76,1.73,1.86,1.9a3,3,0,0,0,2.06-.3c2-1.1,4.06-2.09,6.09-3.12a1.91,1.91,0,0,0,.89-.75,49.61,49.61,0,0,1,4.67-5.94c1.25-1.56,2.06-3.53,4-4.47.44-1.75,1.63-3.08,2.56-4.54a20.32,20.32,0,0,1,3-4.24c2.26-2.07,3.9-4.62,5.76-7a14,14,0,0,0,2.33-3.65,11.34,11.34,0,0,1,1.3-2.52,38.91,38.91,0,0,0,3.89-6.43,22.85,22.85,0,0,1,2.79-5.1c.79-1.05,1.07-2.5,2-3.25a4,4,0,0,0,1.51-2.92,2.7,2.7,0,0,1,1.75-2.59,3.58,3.58,0,0,1,0,1.75c-.91,3.75-2,7.47-2.63,11.26-.87,4.88-1.63,9.79-2,14.72a81.06,81.06,0,0,0-.5,10.13c.13,3.74,0,7.53-.13,11.3,0,1.18,0,2.4-.19,3.52-.19,1.34.32,2.61.07,3.8a9.89,9.89,0,0,0,.33,4,60.92,60.92,0,0,1,1.16,6.92,88.16,88.16,0,0,0,1.47,13.08c.67,3.15,1.45,6.26,2.32,9.36a22.67,22.67,0,0,0,5.89,10.66,5.5,5.5,0,0,0,3.2-2.59c1.22-2.53,1.58-5.41,3.26-7.73-.2-1.56,1.24-2.55,1.41-3.93.25-2,1.11-3.95,1.27-6s2-3.59,1.52-5.79c0-.18.16-.45.31-.63,1.2-1.49,1.21-3.47,1.28-5.08.22-4.57,1.17-9.05,1.31-13.61a24.15,24.15,0,0,1,.23-3.81c.75-4,1.43-7.93,2.07-11.91.19-1.23-.38-2.34-.07-3.54.7-2.63.5-5.34.7-8,.13-1.63-.31-3.34.77-4.81.07-.1,0-.32,0-.47a35.32,35.32,0,0,0,.38-9.46c-.16-1.47.34-3.08-.37-4.37a7.24,7.24,0,0,1-.55-4.32c.71,1.58,1.93,3,2.31,4.52.54,2.08,1.87,3.85,2.07,6a3.74,3.74,0,0,0,.64,1.51c2,3.41,3.6,7,5.54,10.39,1,1.78,1.56,3.74,2.66,5.46,1.52,2.4,3.38,4.63,4.23,7.41a23.32,23.32,0,0,0,2.79,5.21c.93,1.5,2.05,2.88,3,4.4a72.71,72.71,0,0,1,4.42,7.53c.25.57.61,1.3,1.1,1.51a8.06,8.06,0,0,1,3.53,3.52c1.18,1.89,2.92,2,4.75,2,.38,0,.59-.09.67-.46a3.57,3.57,0,0,0,.26-1.81c-.56-2.34,0-4.76-.3-7.16-.15-1.18-.54-2.3-.61-3.48-.16-2.65,0-5.28-.37-8a40.41,40.41,0,0,1-.63-8.42c.12-1.72-.52-3.67-.7-5.48s-1.46-3.65-.94-5.65c-1.67-2.6-.72-5.77-2-8.53-1.05-2.34-1.42-5-2.13-7.46-.77-2.72-2-5.25-3-7.88-.8-2.21-1.25-4.54-2.67-6.49-.26-.35-.13-.75.34-1.1a4,4,0,0,1,.7.84c1.11,2.52,3.11,4.39,4.75,6.51a21.26,21.26,0,0,0,3,3.79,6,6,0,0,1,1.8,1.85c1.31,2.59,3.57,4.47,5.15,6.86C184.29,169,186,171,187,173.46a5,5,0,0,0,1.87,2.66,2.44,2.44,0,0,1,1,1.3c.45,1.83,1.71,3.22,2.5,4.86a40.32,40.32,0,0,0,5.21,8.34,70.66,70.66,0,0,1,5.94,9.1q1.81,3,3.49,6.14c2,3.72,5.06,6.81,6.49,10.87,0,.14.21.24.32.34a14.71,14.71,0,0,1,4.05,7c.92,3.08,3.28,5.36,4.3,8.39.49,1.46,1.61,2.68,2.33,4,1.59,3,3.31,5.92,5.07,8.82.21.34.42.67.61,1a.75.75,0,0,1,0,.88c-.23.29-.56.17-.87.2-.8.06-1.07-1-1.9-.83-1.75.32-3-.67-4.29-1.62A25.4,25.4,0,0,0,219.9,243c-.64-.34-1.47.3-2.07-.27a10.5,10.5,0,0,0-3.68-1.9c-1.33-.5-2.63-1.08-4-1.56-1.1-.4-2.31-.25-3.33-.89a3,3,0,0,0-3.32-.06c-.2.11-.62-.09-.91-.21-2.29-.95-4.63.66-6.93-.13-2.21,1.24-4.47.49-6.7.09-2.71-.48-5.4-1.09-8.11-1.53-1.55-.25-2.35.76-1.91,2.22a2.87,2.87,0,0,0,1,1.57c2.75,2.07,4.93,4.84,8.59,5.75,2.31.57,4.43,2.05,6.51,3.31,3.9,2.35,8.31,3.2,12.58,4.32a32.41,32.41,0,0,0,9.52,1.52c2.53-.09,5,.77,7.53.76,1,0,1.85-.77,2.92-.43a4.4,4.4,0,0,0,2.8-.32,7.28,7.28,0,0,1,2.33-.48,1.74,1.74,0,0,1,2,1.29,30.87,30.87,0,0,0,2.33,5.13c1.64,2.67,2.76,5.6,4.18,8.37a20,20,0,0,1,1.7,3.29c.86,2.84-1,4.77-2.26,6.74-1.92,3-4.28,5.77-4.11,9.66a2.18,2.18,0,0,1-.35,1.14,4.5,4.5,0,0,0-.4,2.05c-.35,3.87.69,7.49,1.74,11.13.2.7.46.93,1.28,1a16.68,16.68,0,0,0,8.32-1.6c3-1.28,6.1-2.4,9-4,1-.56,1.49-.17,1.79.69a15.53,15.53,0,0,0,.75,2.72c1.62,2.81,2.35,6,4,8.83,1.21,2.1,1.72,4.74,2.39,7.12a60.6,60.6,0,0,1,2,7.77,16.85,16.85,0,0,0,1.26,5.4c1,1.86,1,4,1.55,5.93s.23,4.34,1.53,6.27c.3.45-.19,1.42.11,2.08,1,2.17.9,4.57,1.64,6.79a5,5,0,0,1,.43,2.74c-.67,2.11.73,4.08.18,6.13,1.53,2,.44,4.5,1.48,6.74s1.12,5,1.35,7.52c.11,1.21,1.18,1.89,1.21,3,.07,2.93.89,5.74,1.3,8.61a28.55,28.55,0,0,1,.68,5.69c-.12,1.89,1.23,3.67.5,5.64a.94.94,0,0,0,.31.85c.78.39.84,1.16,1,1.81.75,3.08,1.88,6,2.31,9.22a8.67,8.67,0,0,0,.36,2.52c.51,1.23,1.21,2.56.47,4.07a1.86,1.86,0,0,0,.49,1.64c.7.83,1.36,2.06.35,3.23-.27.31-.16.5,0,.8.9,1.67.56,3.63,1.28,5.38.95,2.32-.4,5,1.07,7.33a1.69,1.69,0,0,1,0,1.17,2.26,2.26,0,0,0,.12,1.13c.65,3.61,2.61,7,1.61,10.9a.94.94,0,0,0,.16.66c1.73,2.55.75,5.51,1.29,8.24,0,.22-.14.46-.15.7a42.62,42.62,0,0,0-.07,6.48c.45,3.74.65,7.49,1,11.23.07.77-.69,1.5-.33,2.05a7.74,7.74,0,0,1,1,4.42c0,2.06,1.08,4.11,0,6.23a2.29,2.29,0,0,0,.15,2.06c1.65,2.06,0,4.3.52,6.38-1.09,1-.63,2.25-.34,3.3s-.78,2.06.31,3.07c.77.73-.36,1.54-.46,2.38-.29,2.44.71,4.78.35,7.24-.12.84-.47,1.61-.52,2.42-.14,2.15.26,4.29.1,6.46a4.36,4.36,0,0,1-1.24,3.18,17.38,17.38,0,0,1-2.86-3.53c-1-1.24-1.66-2.78-2.82-3.79a57,57,0,0,1-4.2-4,39.26,39.26,0,0,0-5-4.81,4.3,4.3,0,0,1-1.1-.9,12.86,12.86,0,0,0-3.33-3c-3.13-2.27-6.18-4.65-9.18-7.07a65.12,65.12,0,0,0-7.88-5.6,23.31,23.31,0,0,0-5.38-2.52c-2.05-.57-3.79-1.76-5.78-2.35s-3.47-1.75-5.35-2.37a19.46,19.46,0,0,1-5.19-2.88c-1-.74-2-1.5-3-2.28s-2.49-1.24-3.58-2.19c-1.93-1.69-4.13-3.05-5.93-4.9a1.59,1.59,0,0,0-2.14-.46,1.73,1.73,0,0,0-.79,2.06c.55,2.19.85,4.48,2.21,6.38.42.58.58,1.41.93,1.82,1.08,1.24,1.1,2.87,1.94,4.2,1,1.56,2.33,2.86,3.05,4.64s2.11,3.08,2.92,4.66c1.48,2.89,4,5,5.38,7.91,2.26,1.27,3.3,3.69,5.12,5.4,3.84,3.6,7.57,7.31,11.6,10.71,1.13,1,2.52,1.3,3.58,2.29,2.2,2.08,5.11,3.08,7.59,4.76,1.68,1.14,3.77,1.68,5.62,2.66a50.61,50.61,0,0,0,10.07,3.76,23.69,23.69,0,0,1,3.44.85,14.62,14.62,0,0,0,8.44.82c1.36-.2,1.65,0,1.35,1.36-.44,1.9-.31,3.9-1,5.74a1.37,1.37,0,0,0,0,1.07,8.54,8.54,0,0,1,.06,4.4,36.06,36.06,0,0,0-.54,5.44c-.22,2.34-1.07,4.61-.88,7a1.72,1.72,0,0,1-.49,1.06,3.89,3.89,0,0,0-.64,2c-.47,3.27-.48,6.61-1.66,9.76a6.26,6.26,0,0,0-.23,2.13,19.84,19.84,0,0,1-1.1,7.34,16.82,16.82,0,0,0-1,4.36c-.12,1,.65,2.08-.85,2.61a.67.67,0,0,0-.23.61c.53,2.12-.59,4-.73,6.1-.19,2.91-1.6,5.64-1.65,8.64a4.39,4.39,0,0,1-1.3,2.76,2.35,2.35,0,0,0-.9,1.62c0,1.7-.93,3.23-.88,4.93a3.07,3.07,0,0,1-.54,1.82c-1.52,2.33-1.89,5.06-2.65,7.66-.33,1.11-.39,2.3-1.2,3.26a5.73,5.73,0,0,0-1.06,3.11,7.14,7.14,0,0,1-.81,2.15c-1,2.2-2.46,4.18-3,6.63a19.63,19.63,0,0,1-1.48,4.83c-1.06,2.08-1.94,4.23-3,6.28-.54,1-.53,2.19-1.15,3.13a26.68,26.68,0,0,0-3.77,8c0,.15,0,.34-.06.44-1.3,1.86-1.72,4.1-2.63,6.13a66.88,66.88,0,0,1-3.29,7,16.37,16.37,0,0,0-1.64,3.75c-.11.36.07.92-.34,1.05-1.17.37-.58,1.62-1.28,2.3a4.58,4.58,0,0,0-1.49,2.65c-.17,1.54-1.29,2.46-2,3.64s-.78,2.84-1.58,4.12a.7.7,0,0,1-.15.19c-2.2,2.11-3,5-4.38,7.6s-2.72,5.17-4.32,7.6a4.69,4.69,0,0,0-.83,3.91c.91-.28,1.56-.88,2.28-1.05a4.93,4.93,0,0,0,3.42-3.37c.77-2.18,2.2-3.94,3.1-6a14.11,14.11,0,0,1,1.41-2.9c1.5-2,3.2-4,4-6.51.28-.91,1.7-1.43,1.2-2.81,0-.14.2-.43.37-.58,1.54-1.36,2.14-3.23,2.72-5.1a19.2,19.2,0,0,1,2.3-4.54,14,14,0,0,0,1.5-4.47c.25-1.08,1.53-1.54,1.83-2.37a22.36,22.36,0,0,1,.75-2.82c.69-1.4,1.73-2.7,1.88-4.28a9.48,9.48,0,0,1,1.9-4.28,17.41,17.41,0,0,0,1.23-2.49,38.35,38.35,0,0,1,2.35-5.14,15,15,0,0,0,1.94-5c.51-2.3,1.1-4.77,2.95-6.57.22-.22.54-.55.5-.78-.32-2,1.28-3.3,1.78-5,.31-1-.07-2.33.7-3.1,1.42-1.42,1.61-3.22,2-5a6,6,0,0,1,.69-1.5,19.45,19.45,0,0,0,1.76-4.34c.45-2,1.76-3.69,1.69-5.83a1.43,1.43,0,0,1,.27-.66,13.27,13.27,0,0,0,1.76-6.31c0-1.26-.14-3,.57-3.67,1.74-1.54,1.16-3.5,1.67-5.24a1.53,1.53,0,0,1,.27-.64c1.2-1.35,1-3.12,1.38-4.7.59-2.51.62-5.1,1.4-7.63a13.68,13.68,0,0,0,.92-4.54c0-1-.33-2.37.42-3.43a9,9,0,0,0,1.27-5.31c0-3.36,1.51-6.42,1.49-9.79,0-1.9-.28-4.09,1.27-5.8.27-.3,0-1.08,0-1.64,0-.38-.22-.7-.1-1.14.8-3.2.56-6.55,1.29-9.75.37-1.66-.15-3.31.14-4.94s1.43-3,.57-4.72c-.05-.1.08-.3.15-.44a9.16,9.16,0,0,0,.83-5.11,21.48,21.48,0,0,1,.58-6.26c.31-1.86-.39-3.86.59-5.68,0-.08-.19-.26-.22-.41-.61-2.38-.23-4.82-.48-7.22,1.22-1.47.25-3.21.59-4.79.14-.65-.54-1.08-.32-1.82a18.94,18.94,0,0,0,.45-5.16c0-1.72.06-3.44,0-5.16,0-.91-.86-1.73-.31-2.74a3,3,0,0,0-.07-2.55,8.77,8.77,0,0,1-.44-3.76,35.6,35.6,0,0,0-.78-9.55c-.11-.49-.34-1.06,0-1.35,1.09-1,2.18-2.33,3.48-2.62,2.24-.49,3.4-2.23,4.9-3.48s2.31-3,4.1-3.88a1.16,1.16,0,0,0,.59-.7c.4-1.83,1.84-3.07,3-4.19a28.68,28.68,0,0,0,5.86-7.44,16,16,0,0,1,1-2.14,40.41,40.41,0,0,0,4.07-8.23c.78-1.84,1.19-4,3.36-4.9a1.18,1.18,0,0,0,.54-1.25,3.75,3.75,0,0,1,1.37-2.91,5.18,5.18,0,0,0,1-1.57c.73-1.77.8-3.8,2.37-5.25a2.84,2.84,0,0,0,.61-2.45,3.6,3.6,0,0,1-.06-1.42,55.08,55.08,0,0,1,4.55-12,20.85,20.85,0,0,0,1.94-4.31,7.3,7.3,0,0,1,1.23-2.54c1.91-2.55,2.37-5.77,3.8-8.56a1.59,1.59,0,0,0-.73-2.07c-.66-.46-1.23,0-1.73.41a5.69,5.69,0,0,0-1.18,1.17,58.64,58.64,0,0,0-3.46,5.45c-1.11,1.92-2.47,3.66-3.7,5.44-2.41,3.52-5.4,6.64-8.15,9.93a6.59,6.59,0,0,1-.93,1.09c-3.39,2.56-5.45,6.37-8.57,9.19-1.59,1.43-2.55,3.46-4,4.95a47.43,47.43,0,0,0-6,7.72c-1.72,2.69-3.26,5.49-4.86,8.25a9.83,9.83,0,0,0-.63,1.53c-.48,1.32-.91,2.69-1.46,3.95a21.08,21.08,0,0,0-1.89,5.52c-.06.43,0,1-.81,1.11a11.7,11.7,0,0,1-1.41-6.05c0-2.24.33-4.49-.47-6.58-.37-1,.14-1.89-.32-2.71a9.53,9.53,0,0,1-.83-4.34,19,19,0,0,0-.77-5.36c-1.53-4.17-.81-8.75-2.56-12.85a1.35,1.35,0,0,1,.05-.71c.47-1.93-1.21-3.68-.45-5.63-.87-1.29-.88-2.86-1.4-4.27a7.45,7.45,0,0,1,.1-4.43c.52-2.3,1.35-4.51,1.93-6.79a67.06,67.06,0,0,1,2.35-6.82c.89-2.37,2.21-4.58,2.39-7.29a11.2,11.2,0,0,1,.75-4.15c.77-1.57.84-3.29,1.41-4.9.73-2.05,1.58-4.24,1.5-6.34s2.07-3.85,1.23-6.1c1.62-2.52,1.32-5.67,2.73-8.3a17.46,17.46,0,0,0,1.19-4c.77-3.13,1.31-6.33,2.29-9.38.82-2.54.21-5.39,1.86-7.71.16-.22.09-.63.07-.94a14.52,14.52,0,0,1,.66-3.7c.37-1.68.42-3.39,1.61-4.81.19-.22.06-.78,0-1.16a8.63,8.63,0,0,1,.57-4.44c.84-2.55,1.77-5.07,2.58-7.63a7.12,7.12,0,0,0,.35-2.59c-.07-1,1.24-1.1,1-2.22a4.42,4.42,0,0,1,.73-2.9c.47-.83.05-2.08.46-3.15,1.31-3.5,2.51-7,3.75-10.56-.72-1.21.86-1.81.73-3-.39-3.33.67-6.46,1.61-9.59a4.59,4.59,0,0,1,.75-1c.1.36.18.56.23.78.64,3.14.93,6.34,1.8,9.46.43,1.58,1.06,3.12,1.39,4.67a39.27,39.27,0,0,0,3.48,8.74c.68,1.39,1.17,2.89,1.92,4.2,1.61,2.79,3.1,5.63,4.5,8.52a17.25,17.25,0,0,0,1.75,3.61c2.32,2.77,4,5.94,6.29,8.75,1.58,2,3.25,3.85,5,5.62,1,1,2.49,1.71,3.48,2.83a18,18,0,0,0,2.82,2.16c1,.77,2.3.51,3.45.57.74,0,1.12-1.18,1.19-1.56.21-1,.87-1.77,1.12-2.72.89-3.44,2-6.77,2.23-10.41a37.86,37.86,0,0,0-.11-6.9c-.35-2.73-1.13-5.45-.89-8.22s-.58-5.51-1.16-8.13a68.45,68.45,0,0,0-1.63-7.34c-.79-2.32-.2-5.05-1.9-7.19a2,2,0,0,1-.22-.92c-.18-1.63-1-3.1-1.23-4.74a7.57,7.57,0,0,0-1.07-3.36c-1-1.08-1.14-2.4-1.88-3.49-.3-.44-.69-1-.19-1.51s1.07-.14,1.53.16c1.91,1.26,3.57,2.85,5.56,4,2.79,1.62,5.41,3.58,8.33,4.87,2.25,1,4.33,2.65,7,2.67a.62.62,0,0,1,.43.17c1.43,1.82,3.75,1.67,5.61,2.18a77.89,77.89,0,0,0,12.79,2.28c3.23.31,6.59.71,9.71-1a9.53,9.53,0,0,1,3.46-.64c3.61-.44,5-1.93,4.65-5.47a11.59,11.59,0,0,0-.79-3c-1.43-3.66-4.37-6.27-6.5-9.44-1.71-2.56-4.44-4.43-7.14-6.15-1.53-1-2.93-2.23-4.41-3.32-2.45-1.81-4.67-3.93-7.38-5.39-2.26-1.21-4.41-2.65-6.75-3.67-1.63-.71-2.88-2-4.44-2.65-2-.84-3.74-2.09-5.77-2.79-.75-.26-.95-1.22-1.92-1.23-2.44,0-4.2-2.16-6.65-2.25-.14,0-.27-.15-.42-.23-1.87-1-3.43-2.5-5.61-2.87a.74.74,0,0,1-.65-.85c.07-.43.44-.29.73-.35a25.3,25.3,0,0,1,9.14.06,7.71,7.71,0,0,0,1.83.21c1.72-.16,3.4-.55,5.16-.62,1.59-.07,3.31-.67,5-.73a58.86,58.86,0,0,0,6.08-.67c.86-.11,1.65.35,2.57.06a43.78,43.78,0,0,1,5.53-1.37c3.39-.59,6.52-2.42,10.09-2.13,1.57-1.43,3.61-1.44,5.5-1.63,1.7-.17,3-1.2,4.67-1.47.84-.13,1.72.45,2.52-.22a5.61,5.61,0,0,1,2.56-.79c.86-.2,1.73-.8,2.75-1a37.47,37.47,0,0,0,5-1.06A120.91,120.91,0,0,0,433.94,218c3.67-1.5,7.19-3.39,10.89-4.84.29-.12.75-.21.82-.42.37-1.06,1.29-1.27,2.15-1.68a8.48,8.48,0,0,0,2.7-2.53C451.48,207.3,451.1,205.87,449.71,204.5ZM165.5,112.93c.3-.11.65-.31.91-.24,3,.88,6-.65,9-.15,1.11.18,2.35-.58,3.36.47a.45.45,0,0,0,.45,0c1.73-1.31,3.52-.23,5.29-.22,1.53,0,3.06-.21,4.6-.09,2.12.16,4.25.54,6.32.6a15.14,15.14,0,0,1,5.31,1.26c.34.13.61,0,.91-.15a2.73,2.73,0,0,1,2.11,0c2.08,1.07,4.37,1.42,6.55,2.13s3.7,2.61,6,3.15a1,1,0,0,1,.64.92c-.32.54-.92.59-1.43.77-1.86.63-3.78,1-5.43,2.27a5,5,0,0,1-3.11,1.11,1.51,1.51,0,0,0-.91.16c-2.57,1.92-5.69,2.08-8.62,2.92-1.43.41-3.15.09-4.36,1.3a1.53,1.53,0,0,1-1.11.33c-3.75.16-7.48.55-11.21.78-5.22.33-10.48.67-15.75-.41-4.56-.94-9.28-1.11-13.9-1.84-2-.31-3.91-.81-6-1.31a15.25,15.25,0,0,1,1.73-2.12c.82-.77,2.17-1.33,1.95-2.86a8.6,8.6,0,0,0,2.56-5.2c0-.25.37-.52.63-.65a17.25,17.25,0,0,1,7.25-2.14A19.26,19.26,0,0,0,165.5,112.93Zm-23.1-10.62a41.78,41.78,0,0,1,4.06-4.24,14,14,0,0,0,3.12-3.47,7,7,0,0,1,2.63-3c.67-.34.73-1,1.12-1.5a6.39,6.39,0,0,1,2-2,2.34,2.34,0,0,0,1.06-.92c1.36-2.85,3.9-4.77,6.1-6.74,2.81-2.5,5.42-5.25,8.41-7.53,3.21-2.45,6.16-5.19,9.3-7.71A84.41,84.41,0,0,1,189,59.45c1.82-1.11,3.83-2.08,5.78-3a30.75,30.75,0,0,0,6-3.73,3.4,3.4,0,0,1,1.88-1c2-.12,3.62-1.14,5.43-1.72,2-.66,4.08-1.23,5.9-1.76a1.49,1.49,0,0,1,1.49,2.24c-1.39,3-2.75,6-5,8.49-4.53,5-9.05,9.94-13.73,14.76a63.35,63.35,0,0,1-6,5.36c-2.43,2-4.13,4.59-6.59,6.48-1.69,1.29-3.16,2.94-5,3.92-2.63,1.41-4.32,4-7,5.26-2.39,3.3-6.12,5.06-8.95,7.9a51.68,51.68,0,0,1-6.68,5.68c-1.65,1.17-3.24,2.38-4.79,3.66-.7.58-1.14.1-1.4-.61a26.42,26.42,0,0,0-.72-2.7c-.92-2-2.71-3-4.12-4.42-.69-.71-1.81-.53-2.73-.74S142,102.8,142.4,102.31Zm-2.67,4.86c.51.25.81,0,1.26-.09a2.82,2.82,0,0,1,2.94.71,7.15,7.15,0,0,1,2.83,5.63,1.88,1.88,0,0,1,.22.42c.32,1.6-1.21,2.49-1.49,3.89s.06,2.83-1.3,3.85a8,8,0,0,0-1.44,1.87c-1.53,2.15-3.65,2.86-6.2,3.39S132,126,129.64,126c-.21,0-.4-.25-.62-.32-1.59-.51-1.34-2.25-2.18-3.22s-1.9-1.44-1.73-3.22a32.71,32.71,0,0,1,.45-4.28c.19-.81.34-1.61,1.34-2s1.14-1.4,1.36-2.37c.39-1.73.64-1.84,2.46-1.72.31,0,.8.19.92,0,1.17-1.39,3-.7,4.4-1.4A4.18,4.18,0,0,1,139.73,107.17ZM113.46,72.62c-1.47-3.47-2.17-7.26-3.26-10.89a20.23,20.23,0,0,1-.53-4c-.45-4.43-1.61-8.84-.74-13.34-1-3.23.59-6.43,0-9.68-.34-2,.35-4,.86-5.84.6-2.23.73-4.49,1.17-6.72a2.82,2.82,0,0,1,.37-1.36c.43-.51.34-1.55,1.26-1.53s1.21.75,1.36,1.47c.22,1,1.29,1.12,1.8,1.82,2.24,3.08,4.65,6.08,6.26,9.5,1.06,2.25,2.77,4.15,3.55,6.42s1.88,4.44,2.64,6.72c.64,1.93,1.42,3.83,1.91,5.77.54,2.12,1.14,4.26,1.5,6.42.57,3.37,1.5,6.64,2.34,9.94.18.69.34,1.39.47,2.1a13.67,13.67,0,0,0,1,3.34c.64,1.38.41,3.09.8,4.64.44,1.73,1.37,3.48.37,5.33,1.24,1.37.23,3.1.74,4.65a14.92,14.92,0,0,1,.63,5.81,5.75,5.75,0,0,0,.29,2.35,4.8,4.8,0,0,1-.08,2.83,4.23,4.23,0,0,0,0,2.12c.57,2.4-.07,3.19-2.57,3.17-1.16-.26-2.21.51-3.37.77a2.28,2.28,0,0,1-2.15-.43c-2.81-2.08-5-4.76-7.68-7a2.76,2.76,0,0,1-.77-1.47A83.92,83.92,0,0,0,118,85.05C116.37,80.94,115.2,76.69,113.46,72.62Zm9.21,41.28a17.64,17.64,0,0,0-1,6.56,1.5,1.5,0,0,1-1.14,1.59,22.23,22.23,0,0,1-3.88,1.18c-3.2.52-6.28,1.43-9.4,2.26-2,.53-4,1.67-6.19,1.29a4.3,4.3,0,0,0-2,.48c-3.8,1.53-7.84,2.17-11.74,3.29a5.1,5.1,0,0,1-1.41,0c-1.6.62-3.36.3-5,.38-3.3.17-6.51,1.31-9.85.87-.22,0-.4-.24-.66-.06-2.4,1.58-5.14,1.06-7.77,1.22a5.64,5.64,0,0,0-1.15.26c-4.44,1.27-9,.91-13.55,1.18-1.38.09-2.81-.57-4.1.43a1.11,1.11,0,0,1-.71.07c-3.51-.56-7.07.12-10.6-.52-1.91-.35-3.9,0-5.83-.58a80.43,80.43,0,0,0-9.76-1.88c-1-.17-.8-.8-.28-1.36a22,22,0,0,1,4.29-3.41c1.58-1,3.51-1.59,4.93-2.78,2.22-1.87,5-2.6,7.46-3.88a53.81,53.81,0,0,1,5.51-2.25C42.29,117,46,117.1,49.45,115.7c1-.39,2-.16,3.07-.33,3.81-.63,7.62-1.28,11.44-1.82,2.22-.32,4.57,0,6.8-.38,3-.52,6.14-.38,9.13-1.15a8.78,8.78,0,0,1,2.71-.35c3.17.26,6.28-.27,9.42-.31s6,.33,9,.22c1.83-.06,3.66.28,5.46.06a66.39,66.39,0,0,1,8.92,0,38,38,0,0,1,6.77,1.18C122.74,112.9,122.85,113.36,122.67,113.9Zm-3.08-4.85c-1.83-.55-3.85-.46-5.73-1.08-2.83-.93-5.69-1.78-8.53-2.65-.46-.14-.93-.22-1.39-.33-1.83-.42-3.76-.51-5.37-1.66a.78.78,0,0,0-.44-.17c-3.31.36-5.85-2.4-9.14-2.23-.64,0-1.31-.5-2-.79a31.87,31.87,0,0,0-5.15-2A24,24,0,0,1,76.65,96a66.71,66.71,0,0,0-7.73-3.45A15.34,15.34,0,0,1,64.15,90c-.75-.66-1.77-.64-2.61-1.08-3.08-1.6-5.9-3.66-9.1-5a8.4,8.4,0,0,1-1.92-1.41,2.87,2.87,0,0,0-2.56-1,2,2,0,0,1-1.67-.74,11.35,11.35,0,0,0-4.08-2.9c-.82-.28-1.06-1.29-1.46-2a5.14,5.14,0,0,1,2.48-.92,9.18,9.18,0,0,0,3.48-1.36c1.44-1,3-.6,4.58-.72a52.88,52.88,0,0,1,7.75-.2,22,22,0,0,1,4.45.54c3.36.94,6.84,1.27,10.22,2.1,1.77.43,3.5,1,5.25,1.52,3.66,1.07,7.37,2,11,3.26,2.34.82,4.79,1.53,6.82,3.11a7.63,7.63,0,0,0,1.91,1,67,67,0,0,1,7.79,4,23.82,23.82,0,0,1,5.48,4.09,55.26,55.26,0,0,0,5.63,5.14c1.94,1.48,3.18,3.4,4.86,5,1.26,1.21,2.67,2.28,4,3.45.9.78.93,1.32.09,2.09-.41.37-.65.91-1,1.3s-.79.86-1.21.63C122.77,109,121.15,109.53,119.59,109.05Zm-.27,38.08a3.13,3.13,0,0,0-.5,1c-.34,1.19-.44,2.52-1.64,3.28-.31,2.76-2.18,4.76-3.44,7.06a8.59,8.59,0,0,1-.84,1.69,21.58,21.58,0,0,0-3.73,6c-2.15,4.8-5.15,9.07-8,13.44a55.8,55.8,0,0,1-5.81,7.45c-1.61,1.73-2.46,3.87-3.92,5.66-2.52,3.08-4.55,6.53-7.21,9.53a14.68,14.68,0,0,1-5.65,4.15c-1.41.56-2.08.23-2.21-1.28a9.56,9.56,0,0,1,.14-1.17,10,10,0,0,0-.14-1.15c.6-2.75.62-5.77,1-8.75.51-3.89,1.95-7.47,3-11.17a39.11,39.11,0,0,1,2.7-7.43c1.38-2.57,2.13-5.38,3.71-7.89,1.44-2.28,2.62-4.79,3.91-7.21.72-1.34,1.34-2.84,2.82-3.63a1,1,0,0,0,.43-.56c.69-2.61,2.86-4.1,4.65-5.78,1.44-1.37,2.07-3.26,3.69-4.52a70.9,70.9,0,0,0,9.34-8.06c2.09-.42,2.85-2.5,4.47-3.58a16.52,16.52,0,0,0,4-4c.84-1.12,2.4-1.48,3.43-2.49.46-.45,1.06-.22,1.49.23a2.19,2.19,0,0,1,.38.6c.36.75,2,.07,1.72,1.5a13.18,13.18,0,0,1-.68,2.24c-1.05,2.73-2.08,5.46-3.34,8.12A42.81,42.81,0,0,1,119.32,147.13Zm21.52,26.28c-.28,2.12-.84,4.19-1.14,6.31-.45,3.17-.77,6.32-.92,9.54a80.87,80.87,0,0,1-.94,10.62,33.28,33.28,0,0,0-.85,5.57,5.66,5.66,0,0,1-.73,2.73,3.14,3.14,0,0,0-.33,2.93,2.7,2.7,0,0,1,.07,1.41c-.82,3.86-1,7.81-1.56,11.72a19.47,19.47,0,0,1-1.16,4.58c-1.07,2.75-1.08,5.72-2.36,8.46a32.12,32.12,0,0,0-2.11,6.59c-.43,2-1.75,3.67-2.08,5.74-.14.82-1,.92-1.65.25a5.68,5.68,0,0,1-1.13-2.6,53.29,53.29,0,0,0-2.78-8.06,13.13,13.13,0,0,1-.62-3.26c-.54-4.22-.85-8.45-1.65-12.64-.26-1.33-1.13-2.88-.13-4.34-1-1.18-.8-2.67-1-4.06a30.08,30.08,0,0,1,.12-9.47,8.51,8.51,0,0,0,.1-1.88c-.35-4.16-.18-8.31-.12-12.48.06-3.93.62-7.81.59-11.75a32.82,32.82,0,0,1,1.82-9.57c.57-1.84.49-3.78,1.14-5.56.83-2.27,0-4.92,1.68-7-.44-2.79,1.84-4.85,2-7.57.12-2.26,1.17-4.43,1.73-6.67a66.37,66.37,0,0,1,2-7.86c.47-1.25,1.41-2.31,1.55-3.69a.72.72,0,0,1,.45-.48,8,8,0,0,1,3.55.15c.81.18.67,1,.93,1.53.91,1.86,1,3.95,1.63,5.9a88.13,88.13,0,0,1,2.94,13.64,8.21,8.21,0,0,1,.06,2.51c-.11,2.83.56,5.47.63,8.18C140.56,166.36,141.29,169.87,140.84,173.41Zm27.68-11.33c-.09,1.59,1.07,2.84,1.55,4.29a43.08,43.08,0,0,1,2,7.52c.35,2.48.56,5,1.7,7.35a4.86,4.86,0,0,1,.22,1.64c.37,4.21.76,8.42,1.08,12.64.22,2.89.29,5.79.75,8.66.31,1.86.53,3.74.8,5.61a4.76,4.76,0,0,1-.53,3.72c-1.6-1.59-3.13-2.9-3.94-4.86-.36-.87-1.25-1.34-1.77-2.16a18.69,18.69,0,0,1-2.12-3.65,3.62,3.62,0,0,0-1-1.59c-2.26-1.71-3.17-4.34-4.48-6.65-2.4-4.24-4.56-8.62-6.76-13-2-4-4.05-8-5.94-12.12-.85-1.86-1.19-3.93-2.2-5.76-2-3.67-2.9-7.82-4.65-11.62a8,8,0,0,1-.81-3.7c.12-2-1.33-3.66-1.09-5.65-1.64-2.8-1.62-6.08-2.61-9.07-.72-2.2-.17-3.06,2.1-3.55a5.81,5.81,0,0,1,4.4.4c1.49.87,3.24.38,4.87.81a7.52,7.52,0,0,1,3.75,2.11,64.72,64.72,0,0,1,4.94,6.14c1,1.39,2.19,2.7,2.46,4.51a1.59,1.59,0,0,0,.31.64c2.51,3.12,3.78,6.9,5.2,10.54C167.5,157.45,168.68,159.59,168.52,162.08Zm44.4,41.51a5.62,5.62,0,0,1,.27-5.32A7.52,7.52,0,0,1,212.92,203.59ZM216.4,195c0-2.3.42-4.5.58-6.76a31.41,31.41,0,0,0,.12-5.4,2.74,2.74,0,0,1,.69-2.35,1.64,1.64,0,0,1,.8,1.71c-.7,3,.11,6.11-.33,9.12-.32,2.23-.48,4.49-1,6.71a9,9,0,0,0-.13,2.66c.14,1.62-.93,2.67-1.75,3.9A77.84,77.84,0,0,0,216.4,195Zm-2.21,12.34c.33-.74.41-1.3,1.21-1.58C215.39,206.53,215.1,206.94,214.19,207.32Zm-20.05,38.13c-.37-.16-.63-.49-.51-1.2l14.76,5.83C203.23,249.72,198.72,247.47,194.14,245.45Zm19.77,2.49c-.9-.57-2-.17-3-.39-1.95-.44-4.11-.3-5.75-1.77-2.18.44-3.74-1-5.39-2a8.35,8.35,0,0,0-2-.85,15,15,0,0,1,7.19-.24,33.65,33.65,0,0,1,11.6,4.21,1.55,1.55,0,0,0,.68.16c2.13,0,3.66,1.36,5.34,2.43C219.65,249.09,216.59,249.66,213.91,247.94Zm11.76,233.13h-.08l0-.05c1.44,0,1.92,1.42,2.94,2.07a60.82,60.82,0,0,1,5.17,3.22,30.16,30.16,0,0,0,4.77,2.7,40.31,40.31,0,0,0,4.81,2.46c1.6.62,3.57.59,4.6,2.36,0,.08.3.06.46.07,3.76.36,6.44,2.49,9.2,4.91,2.58,2.27,5.5,4.16,8,6.62.06.05.1.14.17.16,3.39,1,5.36,4.07,8.26,5.79a4.2,4.2,0,0,1,1.38,1.59,3.61,3.61,0,0,0,2,1.87,2.16,2.16,0,0,1,1.62,1.88,1.18,1.18,0,0,0,.79,1c1.53.65,2.22,2.25,3.38,3.34,1.69,1.59,2.43,4,4.07,5.77a.94.94,0,0,1,.17,1.12c-2.65-.68-4.92-2.29-7.52-3.1a3.1,3.1,0,0,1-1.33-1,2.3,2.3,0,0,0-2.19-1.11c-1.12.15-1.57-1-2.44-1.35a18.89,18.89,0,0,1-5.06-3c-.06-.06-.11-.15-.18-.17-2.46-.55-4.5-2-6.63-3.24a16.25,16.25,0,0,1-4.67-3.64c-.19-.23-.26-.49-.59-.67-2.75-1.51-4.71-4-7-6-2.1-1.82-3.8-4.18-6.42-5.4a2.91,2.91,0,0,1-.93-.75,18.6,18.6,0,0,0-4.79-4.22,3.48,3.48,0,0,1-1.25-1.09c-2.41-3.95-6.13-6.65-9.27-9.91A5.18,5.18,0,0,1,225.67,481.07Zm58.83,51.57c-.33-.32-.73-.11-1.11-.11a8.25,8.25,0,0,1-3.47-.75,11.91,11.91,0,0,0-4.2-1.4c-1.43-.11-2.56-1.23-3.88-1.69a63.1,63.1,0,0,1-8.53-4,63.83,63.83,0,0,1-7.89-4.84A52,52,0,0,1,249,515c-3.56-3.55-7.59-6.66-10.67-10.66-3.39-4.41-6.56-9-10-13.38-.44-.57.69-1.08-.28-1.34a1,1,0,0,1-.81-1.22.46.46,0,0,1,.67,0c3.1,3.18,6.36,6.21,9.17,9.66a10.28,10.28,0,0,0,2.89,2.43,5.59,5.59,0,0,1,2.79,2.47c.39.9,1.49,1,2.17,1.69,2.75,2.9,5.61,5.71,8.6,8.38a38.28,38.28,0,0,0,6.72,5.08c2.31,1.28,4.55,2.74,7,3.82,1.48.66,2.69,1.82,4.42,2,.62.08,1.06,1,1.67,1.43,2.13,1.66,5,1.84,6.92,3.85.11.11.25.28.37.28,2.32-.13,3.83,1.58,5.7,2.46.46.22,1.11,0,1.61.86C286.69,533.05,285.57,533.66,284.5,532.64ZM328,414.82a.34.34,0,0,1,.55.15c.09.37-.32.47-.48.7-.28,0-.5-.12-.47-.36A.9.9,0,0,1,328,414.82Zm1,4.36c0,1.38-1.25,2.31-1.33,3.75a12.32,12.32,0,0,1-.59,2.2,27.12,27.12,0,0,1-4.23,7.83,11.33,11.33,0,0,0-1.31,2.54,3.73,3.73,0,0,1-1.07,1.83c-.68.5-1.22,1-.93,2a.92.92,0,0,1-.16.67c-1.88,2.66-2.79,5.82-4.37,8.62-1.37,2.44-2.83,4.89-5.15,6.62a4.49,4.49,0,0,0-1,1.25,16.32,16.32,0,0,1-3.45,3.92,4.71,4.71,0,0,0-2,2.57,2.56,2.56,0,0,1-1.62,1.59c-.67.49-.79,2.24-1.83,1.46-.73-.55.69-1.31,1.11-2a3.63,3.63,0,0,0,.28-.67,1.52,1.52,0,0,1,.6-1.24,6.57,6.57,0,0,0,2.26-4.17,1.46,1.46,0,0,1,.39-.85c2.31-2.07,3-5.33,5.53-7.25,1-3.61,4.26-5.87,5.67-9.24.51-1.18,1.63-1.85,2.23-3,1.76-3.36,3.3-6.86,5.6-9.93.33-3,3.24-4.56,4-7.31A1.53,1.53,0,0,1,329,419.18Zm-30.2,38.74c1.31-2.31,1.68-5,2.61-7.41a16.58,16.58,0,0,1,.82-2.24c1.57-2.82,3.1-5.7,4.86-8.36,2.08-3.13,4.29-6.22,6.62-9.19.63-.8,1.65-1.29,2.32-2.05,2.26-2.57,4.66-5,6.74-7.73a7.67,7.67,0,0,1,2.41-2.22,1.5,1.5,0,0,1-.28,1.83,41.72,41.72,0,0,0-5.09,7.88c-1.59,3.39-4.11,6.16-5.67,9.54a4.41,4.41,0,0,1-.86,1.12,52.18,52.18,0,0,0-4.81,6.57,5.57,5.57,0,0,1-1,1c-.49.43-1.58.65-1,1.74,0,.07-.1.33-.22.4-1.42.86-1.72,2.55-2.73,3.67s-1.3,2.7-2.19,3.8c-1,1.29-2,2.67-3,4.08A3.91,3.91,0,0,1,298.78,457.92Zm38.39-242.13a18.47,18.47,0,0,1,5.08-5.73c.19-.13.45-.29.5-.49.81-2.89,3.51-4.39,4.95-6.81.73-1.21,2.35-1.63,2.92-2.69a25.07,25.07,0,0,1,2-3.17,6,6,0,0,1,1.43-1.27c1.11-.74,2.33-1.35,2.75-2.78.06-.2.35-.32.51-.49,3.81-3.85,7.63-7.67,11.4-11.55,1.44-1.49,3.51-2.17,4.78-3.84,1.61-2.12,4.28-3,5.89-5.16a3.79,3.79,0,0,1,1.88-1.34,10.28,10.28,0,0,0,3.48-2.41,25.78,25.78,0,0,1,5.73-4.22,19.4,19.4,0,0,0,4.78-3c2.36-2.21,5.36-3.29,8.23-4.56,1.45-.64,3-1,4.11-2.28.34-.4,1-.44,1.84-.33a15.3,15.3,0,0,1-1.74,5.06c-2.38,4.25-5.28,8.18-7.6,12.47-.62,1.16-1.6,2.16-2.34,3.3-1.8,2.75-3.68,5.43-5.72,8a21.11,21.11,0,0,1-1.7,1.6c-2,2-3.69,4.53-5.93,6.27-1.79,1.4-2.38,4-4.85,4.56-2.75,4-7.35,6.05-10.17,10a1.62,1.62,0,0,1-.47.53c-2.48,1.24-3.82,3.78-6.09,5.27s-4.6,3.13-6.9,4.7a5.21,5.21,0,0,0-1.36.94c-1.81,2.44-4.69,3.36-7.08,4.95a55.37,55.37,0,0,0-4.78,3.06c-.89.73-1.57.55-1.86-.31-.64-1.92-2.24-3-3.43-4.47S336.14,217.4,337.17,215.79Zm-19.78-39.26c.29-2.56-1-4.9-.39-7.45a23.4,23.4,0,0,0,.07-7.56c-.37-3.51.59-7-.18-10.43-.2-.93.42-1.83.44-2.81a71.43,71.43,0,0,1,.56-10,70.84,70.84,0,0,1,1.7-7.58c1-3.62,2.2-7.19,3.2-10.81a9,9,0,0,1,.74-2.25c1.54-2.62,1.32-5.86,3.13-8.54a61.48,61.48,0,0,0,4.27,10c2.07,3.83,2.62,8.12,4.28,12a19,19,0,0,1,.58,2.76c.69,2.66,1.69,5.26,2.23,7.92.49,2.43.88,4.92,1.35,7.36,1.05,5.51.25,11-.11,16.42-.27,3.93-.56,7.87-.9,11.8a7.25,7.25,0,0,1-.31,1.38,64.72,64.72,0,0,0-1.17,7.16c-.52,3.19-.84,6.46-2.11,9.48-.63,1.5-.21,3.09-.66,4.65a26.54,26.54,0,0,0-1.51,8.41,7.69,7.69,0,0,1-1.3,3.8c-.58,1.06-1,2.29-2.63,1.34-.55-.31-1,.33-1.56.44a1.66,1.66,0,0,1-2.2-1.23c-1.49-4.68-3-9.36-4.05-14.16a57,57,0,0,1-.94-6.11c-.31-2.9-1.1-5.69-1.67-8.53C317.75,181.56,317.11,179,317.39,176.53Zm-22.52,20.11a91.72,91.72,0,0,1-7.78-8.34c-2.61-3-5.1-6.18-7.55-9.35a28.39,28.39,0,0,1-4.36-7.55c-1.15-3.16-2.65-6.15-3.84-9.28-.64-1.7-.63-3.55-1.41-5.23-.44-1,.74-2.5,1.79-2.5a12.33,12.33,0,0,1,1.84.77,23.07,23.07,0,0,0,5.34,2.46,6.8,6.8,0,0,1,2.82,1.72c2.68,2.77,5.83,5.11,8,8.4,1.13,1.72,2.74,3,3.94,4.75.67,1,2,1.6,2.84,2.68,1.76,2.26,4.07,4,5.68,6.45,1.39,2.09,3,4,4.38,6.12a44.94,44.94,0,0,0,3.71,4.78,7.31,7.31,0,0,1,2.25,3.87,1.87,1.87,0,0,0,.54,1.05c1.94,1.9,2.33,4.67,3.78,6.8,1.26,1.86,1.77,4,2.95,5.87.78,1.23.76,2.74,1.31,4.06.12.28,0,.72.16.92,1.61,1.95.15,3.4-.79,4.9a1.16,1.16,0,0,1-2,.32c-1.91-1.51-4-2.8-5.83-4.42-3.87-3.35-6.77-7.49-10.13-11.25A103.07,103.07,0,0,0,294.87,196.64Zm-8.26,35.63c-2.69,0-5.38,0-8.06-.13-2-.09-3.93-.37-5.92-.35-2.35,0-4.7-.46-7.07-.12a7.23,7.23,0,0,1-1.84-.31c-3.59-.5-7.22-.5-10.81-1.17-2.32-.44-4.59-1.07-6.91-1.49a75,75,0,0,1-16.37-5.42c-1.24-.53-2.23-1.48-3.53-1.89-.64-.2-.51-.76-.21-1.14a3,3,0,0,1,1-.65,61.15,61.15,0,0,0,5.63-3.55,24.67,24.67,0,0,1,7.41-3.91c1.81-.49,3.62-1.1,5.48-1.45,2.33-.44,4.46-1.56,6.85-1.84,1.25-.15,2.44-.7,3.73-.3a.72.72,0,0,0,.48,0c2.64-1.25,5.61-.83,8.34-1.67a11.43,11.43,0,0,1,5.15-.32c1.58.23,3.24,0,4.88.15,1.37.13,2.74.58,4.16-.08.85-.39,1.64.68,2.45.63,2.39-.13,4.68.65,7.09.51,1.85-.1,3.74.55,5.61.86,1.4.24,2.75.69,4.18.87a5.19,5.19,0,0,1,3.2,1.34c.7.7,1.54,2.1,3,.77.35-.32.6.31.89.54,1.42,1.14,2.59,2.54,4,3.72,2.41,2.05,4.68,4.22,7.82,5.21,1.49.47,1.69,1.18.88,2.53a2.11,2.11,0,0,0-.38,1.46c.19,1.88-1,3.57-.8,5.49.07.7-.8.64-1.32.72a43.66,43.66,0,0,1-8.59.49c-3.06.18-6.37.47-9.7.55C293.72,232.42,290.17,232.31,286.61,232.27Zm-29.29,62.78a18.54,18.54,0,0,0-2.75,1.37c-3.54,2.17-7.58,3.25-11.35,4.92a3.53,3.53,0,0,1-1.4.27c-1.87-.06-2.58-.85-2.23-2.69a2.86,2.86,0,0,0-.19-2.43,4.25,4.25,0,0,1-.23-2.28,22.3,22.3,0,0,1,3.59-11.54c2.14-3.14,3.79-6.68,6.66-9.28a18.5,18.5,0,0,0,2.82-3.84c1.45-2.21,3.54-3.87,4.89-6.06,1.63-2.63,4.19-4.25,6.25-6.35,1.85-1.88,3.67-4,6.16-5.33,2.32-1.27,4.35-3.07,6.85-4.12a10.17,10.17,0,0,0,2.65-2,10.42,10.42,0,0,1,3.66-2.09c3.36-1.13,6.72-2.13,9.74-4.14,2.1-1.39,4.8-1.63,7-3,.19-.12.56,0,.67-.18,1.75-2.2,4.31-1.62,6.59-2,1.17-.17,2.37-.16,3.56-.24v.13c1.49-.22,3-.48,4.46-.65,2.23-.26,2.62,0,3.33,2,.55,1.57,1.06,3.09,2.62,4.11a7.68,7.68,0,0,1,1.79,2.48,1.43,1.43,0,0,1-.29,1.77,47.69,47.69,0,0,1-6.85,6.85c-2.83,2.19-5.07,5-7.81,7.23-1.35,1.12-2.46,2.52-3.79,3.66-1.09.93-1.46,2.38-2.73,3.2a17.32,17.32,0,0,0-3.73,3.58,15.31,15.31,0,0,1-4.08,3.16c-3.11,1.79-5.53,4.4-8.45,6.38-3.13,2.12-5.89,4.73-9.25,6.56-1.82,1-3.2,2.67-5,3.77A102.26,102.26,0,0,1,257.32,295.05Zm65.91-46.36c-1.31,2.09-1.1,4.79-2.8,6.69.62,1.14-.31,2.16-.23,3.29a28.33,28.33,0,0,1-.64,7.5c-.45,2.24.18,4.92-1.74,6.81.35,2.82-1.34,5.2-1.68,7.91-.43,3.4-1.4,6.73-2.14,10.09,0,.08,0,.18-.07.23-1.38,1.24-1,3-1.55,4.56s-1,3.33-1.6,4.93a56.74,56.74,0,0,0-1.61,5.84c-.94,3.47-1.87,6.95-2.62,10.47-.54,2.54-1.69,4.93-1.58,7.65a10,10,0,0,1-.89,3.85c-1.52,3.76-1.19,7.92-2.85,11.62a11.19,11.19,0,0,0-.58,3.19,21.1,21.1,0,0,1-2.12,7.66,5.23,5.23,0,0,0-.47,1.58,14.94,14.94,0,0,1-1.54,4.95,3,3,0,0,0-.56,1.54c.2,3.14-1,6-1.59,9a36.81,36.81,0,0,1-1.94,7.68c-.4.95,0,2.19-.38,3.27-.6,1.56-.56,3.3-1.06,4.83-1.46,4.44-2.9,8.88-4.29,13.34-.43,1.4-.23,3-1.61,4.43.31-1.94-1-3.19-1.07-4.93a25,25,0,0,0-.44-4.48c-.83-3.23.26-6.72-1.53-9.74a.49.49,0,0,1-.06-.23c.06-3.32-1.58-6.26-2-9.51a44.8,44.8,0,0,0-1.37-7c-1.25-4.07-1.08-8.24-1.59-12.34-.31-2.59-.5-5.12-1.89-7.39a1.06,1.06,0,0,1-.13-.46,18.47,18.47,0,0,1-.26-3.93c-1.46-1-.74-2.44-.93-3.72-.24-1.62-.23-3.26-1.18-4.8a5.51,5.51,0,0,1-.88-3.42,2.37,2.37,0,0,0-.48-1.57,3.08,3.08,0,0,1-.62-2.68c.29-.92-.34-1.84-.66-2.59-1.11-2.64-1.71-5.46-2.78-8-1.35-3.21-2.31-6.63-4.26-9.62a61.33,61.33,0,0,1-3.2-6.32c-.29-.6-.14-1,.46-1.35a31.81,31.81,0,0,1,7.26-3.8c1.4-2.12,4.58-1.6,5.85-4,.2-.37.74-.59,1.15-.81,3.51-1.82,6.25-4.81,9.89-6.41a2.88,2.88,0,0,0,1-.92,33.53,33.53,0,0,1,6-5.07c2.51-1.81,4.62-4.13,7.09-5.87,3.25-2.27,5.34-5.6,8.34-8a87.08,87.08,0,0,0,7.54-7.46c2.85-2.93,6.08-5.44,8.69-8.66A2,2,0,0,1,323.23,248.69Zm.08-12.2a3.6,3.6,0,0,0-.48-1.07c-3.1-3.25-2.41-7.06-1.21-10.68.72-2.21,1.78-4.52,4.1-5.77.44-.23.85-.55,1.32-.3a7.68,7.68,0,0,0,3.72.61c1.51,0,1.76,1.57,2.72,2.28s1.37,1.64,2.45,2.11a2.1,2.1,0,0,1,1.14,1.75c.11,2.1,1.56,4,.88,6.34.58.73,0,1.57,0,2.42,0,1.49.11,3-2,3.21-1.12,1.64-3,1.87-4.65,2.54A6.57,6.57,0,0,1,323.31,236.49Zm29.91,46.07a14.57,14.57,0,0,1,.7,3.23,3.58,3.58,0,0,0,.78,2.44,2.12,2.12,0,0,1,.46,1.32c.59,4.57,1.36,9.1,2.21,13.63.42,2.23.44,4.52.64,6.79,0,.23-.1.5,0,.69,1.68,4.06.29,8.23.51,12.34.08,1.43-.85,2.55-1.29,3.8-.54,1.53-.2,3.31-1.41,4.67-4.48-1.48-7.29-5-10.13-8.44-1.77-2.14-3.39-4.4-5.19-6.5a11,11,0,0,1-1.37-2.75c-1-2-2.51-3.86-2.88-6.19-.17-1.09-1.2-1.6-1.62-2.59-2-4.71-3.86-9.49-6.21-14.05a17.88,17.88,0,0,1-.84-3.11c-.63-2.06-1.13-4.15-1.9-6.2a12.45,12.45,0,0,1-.5-4.65c.08-3.27-.38-6.5-.49-9.75a23.32,23.32,0,0,1,.24-4.51c.35-2.2.27-4.42.55-6.62.23-1.71.92-3.31,1-5.09,0-.88.25-1.86.27-2.79a8,8,0,0,1,.57-2.79,1.6,1.6,0,0,1,2-1.14c.6.15,1.22.56,1.8,0,1.15-1.16,1.72-.37,2.35.62,2.19,3.48,4.53,6.88,6.69,10.38,1.37,2.24,3.09,4.35,3.94,6.92.79,2.41,2.67,4.24,3.59,6.61.45,1.16,1.35,2.14,1.27,3.5-.06,1.08,1.16,1.4,1.36,2.42C350.88,277.48,352.46,279.87,353.22,282.56Zm1-43.49c.16.17.33.46.51.48,3.4.29,5.52,3.4,8.8,4a5,5,0,0,1,2.77,1.29c.22.22.57.49.82.45,2.12-.35,3.2,1.51,4.81,2.19,2,.84,3.41,2.39,5.14,3.52,1,.66,2.41.56,3.37,1.42.06.05.18,0,.22.09,1.44,1.77,3.78,2.16,5.44,3.43s4,1.83,5.16,3.43c1.78,2.35,4.74,2.84,6.59,5,3,3.47,6.84,6.19,8.56,10.74.4,1.05,1.57,1.78,1.59,3.22a1.58,1.58,0,0,1-.94,1.67,14.29,14.29,0,0,1-3.61,1.24,50.67,50.67,0,0,1-6,1.09c-2.83.31-5.64-.24-8.46-.52a68.55,68.55,0,0,1-9.11-1.91,32.77,32.77,0,0,1-6-2.39,64.3,64.3,0,0,1-8.34-4.18c-3.37-2.22-7.29-3.65-10.06-6.69-1.23-1.36-2.83-2.39-3.73-4.06-.15-.28-.37-.68-.6-.72-2.69-.4-3.22-3.09-4.81-4.62a25.38,25.38,0,0,1-3.85-5.43c-1.3-2.19-3.16-3.94-4.53-6.06-.33-.51-.81-1-1.14-1.52a1.63,1.63,0,0,1,.57-2.43,12.24,12.24,0,0,0,4.34-4.92,10.83,10.83,0,0,0,.59-2.85c2.74,1.1,5.51,1.52,7.68,3.37.28.23.6.11.88.18A5.59,5.59,0,0,1,354.21,239.07ZM446,208.14c-.6.39-1.26.68-1.89,1a71.68,71.68,0,0,1-7.28,4c-3.41,1.41-6.81,2.85-10.28,4.12-2.94,1.07-6,1.57-8.91,2.64-4.66,1.73-9.56,2.43-14.28,3.83-3,.88-5.91,1.79-9,2.41-2.38.48-4.68,1.37-7.1,1.85a6.57,6.57,0,0,1-2.56.23c-1.2.07-2.42,0-3.47.7-.35.25-.83.44-1.11.19-1.1-1-2.29-.37-3.32-.1a3.91,3.91,0,0,1-2.29.11c-.15,0-.39-.22-.43-.17-1.85,1.84-4.16-.13-6.06.7s-4.22-.07-6.18.94a2.09,2.09,0,0,1-1.42.09c-4.08-1.16-8.35-.33-12.47-1.12a4.83,4.83,0,0,0-1.86.23,1.74,1.74,0,0,1-1.55-.34c-.72-.51-.75-1.24-.05-1.45,1.53-.45,2.48-1.9,4.25-2,.82-.05,1.52-1.25,2.36-1.78,1.73-1.09,3.48-2.1,5.15-3.29A13.57,13.57,0,0,1,360,219a72.11,72.11,0,0,0,10-4.27c1.3-.64,2.72-.82,4-1.39,2.78-1.22,5.76-1.94,8.49-3.2,3.37-1.55,7.24-1.61,10.38-3.59,2.63-1.65,5.54-2.28,8.45-3a41.09,41.09,0,0,1,8.48-1.06,21.09,21.09,0,0,0,3.65-.62,10.87,10.87,0,0,1,3.54-.29,33.67,33.67,0,0,0,4.49-.11c3.15-.07,6.32.24,9.44,0s6.13,1.21,9.23,1.55a2.23,2.23,0,0,1,1.28.61,7.79,7.79,0,0,0,3.61,1.65,3.35,3.35,0,0,1,.88.34C447.23,206.42,447.24,207.33,446,208.14Z" transform="translate(-10.98 -15.06)"/></g><g id="Layer_2" data-name="Layer 2"><path class="cls-2" d="M322.44,242.21a1.43,1.43,0,0,1-.29,1.77,47.69,47.69,0,0,1-6.85,6.85c-2.83,2.19-5.07,5-7.81,7.23-1.35,1.12-2.46,2.52-3.79,3.66-1.09.93-1.46,2.38-2.73,3.2a17.32,17.32,0,0,0-3.73,3.58,15.31,15.31,0,0,1-4.08,3.16c-3.11,1.79-5.53,4.4-8.45,6.38-3.13,2.12-5.89,4.73-9.25,6.56-1.82,1-3.2,2.67-5,3.77a102.26,102.26,0,0,1-13.11,6.68,18.54,18.54,0,0,0-2.75,1.37c-3.54,2.17-7.58,3.25-11.35,4.92a3.53,3.53,0,0,1-1.4.27c-1.87-.06-2.58-.85-2.23-2.69a2.86,2.86,0,0,0-.19-2.43,4.25,4.25,0,0,1-.23-2.28,22.3,22.3,0,0,1,3.59-11.54c2.14-3.14,3.79-6.68,6.66-9.28a18.5,18.5,0,0,0,2.82-3.84c1.45-2.21,3.54-3.87,4.89-6.06,1.63-2.63,4.19-4.25,6.25-6.35,1.85-1.88,3.67-4,6.16-5.33,2.32-1.27,4.35-3.07,6.85-4.12a10.17,10.17,0,0,0,2.65-2,10.42,10.42,0,0,1,3.66-2.09c3.36-1.13,6.72-2.13,9.74-4.14,2.1-1.39,4.8-1.63,7-3,.19-.12.56,0,.67-.18,1.75-2.2,4.31-1.62,6.59-2,1.17-.17,2.37-.16,3.56-.24v.13c1.49-.22,3-.48,4.46-.65,2.23-.26,2.62,0,3.33,2,.55,1.57,1.06,3.09,2.62,4.11A7.68,7.68,0,0,1,322.44,242.21ZM139.85,154.66a8.21,8.21,0,0,0-.06-2.51,88.13,88.13,0,0,0-2.94-13.64c-.6-1.95-.72-4-1.63-5.9-.26-.54-.12-1.35-.93-1.53a8,8,0,0,0-3.55-.15.72.72,0,0,0-.45.48c-.14,1.38-1.08,2.44-1.55,3.69a66.37,66.37,0,0,0-2,7.86c-.56,2.24-1.61,4.41-1.73,6.67-.15,2.72-2.43,4.78-2,7.57-1.66,2.07-.85,4.72-1.68,7-.65,1.78-.57,3.72-1.14,5.56a32.82,32.82,0,0,0-1.82,9.57c0,3.94-.53,7.82-.59,11.75-.06,4.17-.23,8.32.12,12.48a8.51,8.51,0,0,1-.1,1.88,30.08,30.08,0,0,0-.12,9.47c.24,1.39,0,2.88,1,4.06-1,1.46-.13,3,.13,4.34.8,4.19,1.11,8.42,1.65,12.64a13.13,13.13,0,0,0,.62,3.26,53.29,53.29,0,0,1,2.78,8.06,5.68,5.68,0,0,0,1.13,2.6c.6.67,1.51.57,1.65-.25.33-2.07,1.65-3.78,2.08-5.74a32.12,32.12,0,0,1,2.11-6.59c1.28-2.74,1.29-5.71,2.36-8.46a19.47,19.47,0,0,0,1.16-4.58c.52-3.91.74-7.86,1.56-11.72a2.7,2.7,0,0,0-.07-1.41,3.14,3.14,0,0,1,.33-2.93,5.66,5.66,0,0,0,.73-2.73,33.28,33.28,0,0,1,.85-5.57,80.87,80.87,0,0,0,.94-10.62c.15-3.22.47-6.37.92-9.54.3-2.12.86-4.19,1.14-6.31.45-3.54-.28-7-.36-10.57C140.41,160.13,139.74,157.49,139.85,154.66Zm113.06,75.53c3.59.67,7.22.67,10.81,1.17a7.23,7.23,0,0,0,1.84.31c2.37-.34,4.72.14,7.07.12,2,0,3.94.26,5.92.35,2.68.11,5.37.1,8.06.13,3.56,0,7.11.15,10.66.07,3.33-.08,6.64-.37,9.7-.55a43.66,43.66,0,0,0,8.59-.49c.52-.08,1.39,0,1.32-.72-.19-1.92,1-3.61.8-5.49a2.11,2.11,0,0,1,.38-1.46c.81-1.35.61-2.06-.88-2.53-3.14-1-5.41-3.16-7.82-5.21-1.4-1.18-2.57-2.58-4-3.72-.29-.23-.54-.86-.89-.54-1.43,1.33-2.27-.07-3-.77a5.19,5.19,0,0,0-3.2-1.34c-1.43-.18-2.78-.63-4.18-.87-1.87-.31-3.76-1-5.61-.86-2.41.14-4.7-.64-7.09-.51-.81.05-1.6-1-2.45-.63-1.42.66-2.79.21-4.16.08-1.64-.16-3.3.08-4.88-.15a11.43,11.43,0,0,0-5.15.32c-2.73.84-5.7.42-8.34,1.67a.72.72,0,0,1-.48,0c-1.29-.4-2.48.15-3.73.3-2.39.28-4.52,1.4-6.85,1.84-1.86.35-3.67,1-5.48,1.45a24.67,24.67,0,0,0-7.41,3.91,61.15,61.15,0,0,1-5.63,3.55,3,3,0,0,0-1,.65c-.3.38-.43.94.21,1.14,1.3.41,2.29,1.36,3.53,1.89A75,75,0,0,0,246,228.7C248.32,229.12,250.59,229.75,252.91,230.19ZM358,310.66c-.08-.19,0-.46,0-.69-.2-2.27-.22-4.56-.64-6.79-.85-4.53-1.62-9.06-2.21-13.63a2.12,2.12,0,0,0-.46-1.32,3.58,3.58,0,0,1-.78-2.44,14.57,14.57,0,0,0-.7-3.23c-.76-2.69-2.34-5.08-2.88-7.83-.2-1-1.42-1.34-1.36-2.42.08-1.36-.82-2.34-1.27-3.5-.92-2.37-2.8-4.2-3.59-6.61-.85-2.57-2.57-4.68-3.94-6.92-2.16-3.5-4.5-6.9-6.69-10.38-.63-1-1.2-1.78-2.35-.62-.58.58-1.2.17-1.8,0a1.6,1.6,0,0,0-2,1.14,8,8,0,0,0-.57,2.79c0,.93-.23,1.91-.27,2.79-.07,1.78-.76,3.38-1,5.09-.28,2.2-.2,4.42-.55,6.62a23.32,23.32,0,0,0-.24,4.51c.11,3.25.57,6.48.49,9.75a12.45,12.45,0,0,0,.5,4.65c.77,2.05,1.27,4.14,1.9,6.2a17.88,17.88,0,0,0,.84,3.11c2.35,4.56,4.21,9.34,6.21,14.05.42,1,1.45,1.5,1.62,2.59.37,2.33,1.89,4.14,2.88,6.19a11,11,0,0,0,1.37,2.75c1.8,2.1,3.42,4.36,5.19,6.5,2.84,3.45,5.65,7,10.13,8.44,1.21-1.36.87-3.14,1.41-4.67.44-1.25,1.37-2.37,1.29-3.8C358.28,318.89,359.67,314.72,358,310.66ZM317.07,161.52a23.4,23.4,0,0,1-.07,7.56c-.57,2.55.68,4.89.39,7.45s.36,5,.86,7.5c.57,2.84,1.36,5.63,1.67,8.53a57,57,0,0,0,.94,6.11c1.05,4.8,2.56,9.48,4.05,14.16a1.66,1.66,0,0,0,2.2,1.23c.55-.11,1-.75,1.56-.44,1.63.95,2.05-.28,2.63-1.34a7.69,7.69,0,0,0,1.3-3.8,26.54,26.54,0,0,1,1.51-8.41c.45-1.56,0-3.15.66-4.65,1.27-3,1.59-6.29,2.11-9.48a64.72,64.72,0,0,1,1.17-7.16,7.25,7.25,0,0,0,.31-1.38c.34-3.93.63-7.87.9-11.8.36-5.44,1.16-10.91.11-16.42-.47-2.44-.86-4.93-1.35-7.36-.54-2.66-1.54-5.26-2.23-7.92a19,19,0,0,0-.58-2.76c-1.66-3.93-2.21-8.22-4.28-12a61.48,61.48,0,0,1-4.27-10c-1.81,2.68-1.59,5.92-3.13,8.54a9,9,0,0,0-.74,2.25c-1,3.62-2.2,7.19-3.2,10.81a70.84,70.84,0,0,0-1.7,7.58,71.43,71.43,0,0,0-.56,10c0,1-.64,1.88-.44,2.81C317.66,154.55,316.7,158,317.07,161.52Zm-231.18-31a5.1,5.1,0,0,0,1.41,0c3.9-1.12,7.94-1.76,11.74-3.29a4.3,4.3,0,0,1,2-.48c2.24.38,4.2-.76,6.19-1.29,3.12-.83,6.2-1.74,9.4-2.26a22.23,22.23,0,0,0,3.88-1.18,1.5,1.5,0,0,0,1.14-1.59,17.64,17.64,0,0,1,1-6.56c.18-.54.07-1-.51-1.12a38,38,0,0,0-6.77-1.18,66.39,66.39,0,0,0-8.92,0c-1.8.22-3.63-.12-5.46-.06-3,.11-6-.25-9-.22s-6.25.57-9.42.31a8.78,8.78,0,0,0-2.71.35c-3,.77-6.1.63-9.13,1.15-2.23.39-4.58.06-6.8.38-3.82.54-7.63,1.19-11.44,1.82-1,.17-2.11-.06-3.07.33-3.41,1.4-7.16,1.25-10.63,2.56a53.81,53.81,0,0,0-5.51,2.25c-2.48,1.28-5.24,2-7.46,3.88-1.42,1.19-3.35,1.75-4.93,2.78a22,22,0,0,0-4.29,3.41c-.52.56-.74,1.19.28,1.36a80.43,80.43,0,0,1,9.76,1.88c1.93.59,3.92.23,5.83.58,3.53.64,7.09,0,10.6.52a1.11,1.11,0,0,0,.71-.07c1.29-1,2.72-.34,4.1-.43,4.52-.27,9.11.09,13.55-1.18a5.64,5.64,0,0,1,1.15-.26c2.63-.16,5.37.36,7.77-1.22.26-.18.44,0,.66.06,3.34.44,6.55-.7,9.85-.87C82.53,130.87,84.29,131.19,85.89,130.57Zm312,133.76c-1.85-2.13-4.81-2.62-6.59-5-1.2-1.6-3.48-2.14-5.16-3.43s-4-1.66-5.44-3.43c0-.06-.16,0-.22-.09-1-.86-2.36-.76-3.37-1.42-1.73-1.13-3.16-2.68-5.14-3.52-1.61-.68-2.69-2.54-4.81-2.19-.25,0-.6-.23-.82-.45a5,5,0,0,0-2.77-1.29c-3.28-.59-5.4-3.7-8.8-4-.18,0-.35-.31-.51-.48a5.59,5.59,0,0,0-3.35-1.53c-.28-.07-.6.05-.88-.18-2.17-1.85-4.94-2.27-7.68-3.37a10.83,10.83,0,0,1-.59,2.85,12.24,12.24,0,0,1-4.34,4.92,1.63,1.63,0,0,0-.57,2.43c.33.56.81,1,1.14,1.52,1.37,2.12,3.23,3.87,4.53,6.06a25.38,25.38,0,0,0,3.85,5.43c1.59,1.53,2.12,4.22,4.81,4.62.23,0,.45.44.6.72.9,1.67,2.5,2.7,3.73,4.06,2.77,3,6.69,4.47,10.06,6.69a64.3,64.3,0,0,0,8.34,4.18,32.77,32.77,0,0,0,6,2.39,68.55,68.55,0,0,0,9.11,1.91c2.82.28,5.63.83,8.46.52a50.67,50.67,0,0,0,6-1.09,14.29,14.29,0,0,0,3.61-1.24,1.58,1.58,0,0,0,.94-1.67c0-1.44-1.19-2.17-1.59-3.22C404.68,270.52,400.82,267.8,397.84,264.33ZM446,205.59a3.35,3.35,0,0,0-.88-.34,7.79,7.79,0,0,1-3.61-1.65,2.23,2.23,0,0,0-1.28-.61c-3.1-.34-6-1.84-9.23-1.55s-6.29,0-9.44,0a33.67,33.67,0,0,1-4.49.11,10.87,10.87,0,0,0-3.54.29,21.09,21.09,0,0,1-3.65.62,41.09,41.09,0,0,0-8.48,1.06c-2.91.76-5.82,1.39-8.45,3-3.14,2-7,2-10.38,3.59-2.73,1.26-5.71,2-8.49,3.2-1.29.57-2.71.75-4,1.39A72.11,72.11,0,0,1,360,219a13.57,13.57,0,0,0-3.74,1.89c-1.67,1.19-3.42,2.2-5.15,3.29-.84.53-1.54,1.73-2.36,1.78-1.77.12-2.72,1.57-4.25,2-.7.21-.67.94.05,1.45a1.74,1.74,0,0,0,1.55.34,4.83,4.83,0,0,1,1.86-.23c4.12.79,8.39,0,12.47,1.12a2.09,2.09,0,0,0,1.42-.09c2-1,4.17-.06,6.18-.94s4.21,1.14,6.06-.7c0-.05.28.12.43.17a3.91,3.91,0,0,0,2.29-.11c1-.27,2.22-.91,3.32.1.28.25.76.06,1.11-.19,1.05-.73,2.27-.63,3.47-.7a6.57,6.57,0,0,0,2.56-.23c2.42-.48,4.72-1.37,7.1-1.85,3.05-.62,6-1.53,9-2.41,4.72-1.4,9.62-2.1,14.28-3.83,2.88-1.07,6-1.57,8.91-2.64,3.47-1.27,6.87-2.71,10.28-4.12a71.68,71.68,0,0,0,7.28-4c.63-.35,1.29-.64,1.89-1C447.24,207.33,447.23,206.42,446,205.59Zm-337-161.2c-.87,4.5.29,8.91.74,13.34a20.23,20.23,0,0,0,.53,4c1.09,3.63,1.79,7.42,3.26,10.89,1.74,4.07,2.91,8.32,4.5,12.43a83.92,83.92,0,0,1,3.73,10.46,2.76,2.76,0,0,0,.77,1.47c2.63,2.26,4.87,4.94,7.68,7a2.28,2.28,0,0,0,2.15.43c1.16-.26,2.21-1,3.37-.77,2.5,0,3.14-.77,2.57-3.17a4.23,4.23,0,0,1,0-2.12,4.8,4.8,0,0,0,.08-2.83,5.75,5.75,0,0,1-.29-2.35,14.92,14.92,0,0,0-.63-5.81c-.51-1.55.5-3.28-.74-4.65,1-1.85.07-3.6-.37-5.33-.39-1.55-.16-3.26-.8-4.64a13.67,13.67,0,0,1-1-3.34c-.13-.71-.29-1.41-.47-2.1-.84-3.3-1.77-6.57-2.34-9.94-.36-2.16-1-4.3-1.5-6.42-.49-1.94-1.27-3.84-1.91-5.77-.76-2.28-1.85-4.43-2.64-6.72S123.1,34.3,122,32.05c-1.61-3.42-4-6.42-6.26-9.5-.51-.7-1.58-.8-1.8-1.82-.15-.72-.52-1.45-1.36-1.47s-.83,1-1.26,1.53a2.82,2.82,0,0,0-.37,1.36c-.44,2.23-.57,4.49-1.17,6.72-.51,1.87-1.2,3.86-.86,5.84C109.52,38,107.91,41.16,108.93,44.39ZM337.38,219.53c1.19,1.45,2.79,2.55,3.43,4.47.29.86,1,1,1.86.31a55.37,55.37,0,0,1,4.78-3.06c2.39-1.59,5.27-2.51,7.08-4.95a5.21,5.21,0,0,1,1.36-.94c2.3-1.57,4.57-3.18,6.9-4.7s3.61-4,6.09-5.27a1.62,1.62,0,0,0,.47-.53c2.82-3.9,7.42-6,10.17-10,2.47-.58,3.06-3.16,4.85-4.56,2.24-1.74,3.9-4.22,5.93-6.27a21.11,21.11,0,0,0,1.7-1.6c2-2.57,3.92-5.25,5.72-8,.74-1.14,1.72-2.14,2.34-3.3,2.32-4.29,5.22-8.22,7.6-12.47a15.3,15.3,0,0,0,1.74-5.06c-.86-.11-1.5-.07-1.84.33-1.11,1.28-2.66,1.64-4.11,2.28-2.87,1.27-5.87,2.35-8.23,4.56a19.4,19.4,0,0,1-4.78,3,25.78,25.78,0,0,0-5.73,4.22,10.28,10.28,0,0,1-3.48,2.41,3.79,3.79,0,0,0-1.88,1.34c-1.61,2.14-4.28,3-5.89,5.16-1.27,1.67-3.34,2.35-4.78,3.84-3.77,3.88-7.59,7.7-11.4,11.55-.16.17-.45.29-.51.49-.42,1.43-1.64,2-2.75,2.78a6,6,0,0,0-1.43,1.27,25.07,25.07,0,0,0-2,3.17c-.57,1.06-2.19,1.48-2.92,2.69-1.44,2.42-4.14,3.92-4.95,6.81-.05.2-.31.36-.5.49a18.47,18.47,0,0,0-5.08,5.73C336.14,217.4,336.19,218.07,337.38,219.53Zm-161.6-15.35c-.46-2.87-.53-5.77-.75-8.66-.32-4.22-.71-8.43-1.08-12.64a4.86,4.86,0,0,0-.22-1.64c-1.14-2.33-1.35-4.87-1.7-7.35a43.08,43.08,0,0,0-2-7.52c-.48-1.45-1.64-2.7-1.55-4.29.16-2.49-1-4.63-1.85-6.77-1.42-3.64-2.69-7.42-5.2-10.54a1.59,1.59,0,0,1-.31-.64c-.27-1.81-1.45-3.12-2.46-4.51a64.72,64.72,0,0,0-4.94-6.14,7.52,7.52,0,0,0-3.75-2.11c-1.63-.43-3.38.06-4.87-.81a5.81,5.81,0,0,0-4.4-.4c-2.27.49-2.82,1.35-2.1,3.55,1,3,1,6.27,2.61,9.07-.24,2,1.21,3.63,1.09,5.65a8,8,0,0,0,.81,3.7c1.75,3.8,2.62,8,4.65,11.62,1,1.83,1.35,3.9,2.2,5.76,1.89,4.08,3.91,8.11,5.94,12.12,2.2,4.35,4.36,8.73,6.76,13,1.31,2.31,2.22,4.94,4.48,6.65a3.62,3.62,0,0,1,1,1.59,18.69,18.69,0,0,0,2.12,3.65c.52.82,1.41,1.29,1.77,2.16.81,2,2.34,3.27,3.94,4.86a4.76,4.76,0,0,0,.53-3.72C176.31,207.92,176.09,206,175.78,204.18ZM142.84,103.52c.92.21,2,0,2.73.74,1.41,1.42,3.2,2.45,4.12,4.42a26.42,26.42,0,0,1,.72,2.7c.26.71.7,1.19,1.4.61,1.55-1.28,3.14-2.49,4.79-3.66a51.68,51.68,0,0,0,6.68-5.68c2.83-2.84,6.56-4.6,8.95-7.9,2.64-1.31,4.33-3.85,7-5.26,1.84-1,3.31-2.63,5-3.92,2.46-1.89,4.16-4.53,6.59-6.48a63.35,63.35,0,0,0,6-5.36c4.68-4.82,9.2-9.79,13.73-14.76,2.24-2.47,3.6-5.5,5-8.49A1.49,1.49,0,0,0,214,48.24c-1.82.53-3.88,1.1-5.9,1.76-1.81.58-3.47,1.6-5.43,1.72a3.4,3.4,0,0,0-1.88,1,30.75,30.75,0,0,1-6,3.73c-2,.94-4,1.91-5.78,3a84.41,84.41,0,0,0-8.83,5.69c-3.14,2.52-6.09,5.26-9.3,7.71-3,2.28-5.6,5-8.41,7.53-2.2,2-4.74,3.89-6.1,6.74a2.34,2.34,0,0,1-1.06.92,6.39,6.39,0,0,0-2,2c-.39.48-.45,1.16-1.12,1.5a7,7,0,0,0-2.63,3,14,14,0,0,1-3.12,3.47,41.78,41.78,0,0,0-4.06,4.24C142,102.8,142,103.33,142.84,103.52ZM42.21,77.88a11.35,11.35,0,0,1,4.08,2.9,2,2,0,0,0,1.67.74,2.87,2.87,0,0,1,2.56,1,8.4,8.4,0,0,0,1.92,1.41c3.2,1.37,6,3.43,9.1,5,.84.44,1.86.42,2.61,1.08a15.34,15.34,0,0,0,4.77,2.5A66.71,66.71,0,0,1,76.65,96a24,24,0,0,0,5.23,2.14,31.87,31.87,0,0,1,5.15,2c.65.29,1.32.82,2,.79,3.29-.17,5.83,2.59,9.14,2.23a.78.78,0,0,1,.44.17c1.61,1.15,3.54,1.24,5.37,1.66.46.11.93.19,1.39.33,2.84.87,5.7,1.72,8.53,2.65,1.88.62,3.9.53,5.73,1.08,1.56.48,3.18-.09,4.66.72.42.23.88-.3,1.21-.63s.63-.93,1-1.3c.84-.77.81-1.31-.09-2.09-1.33-1.17-2.74-2.24-4-3.45-1.68-1.59-2.92-3.51-4.86-5a55.26,55.26,0,0,1-5.63-5.14,23.82,23.82,0,0,0-5.48-4.09,67,67,0,0,0-7.79-4,7.63,7.63,0,0,1-1.91-1c-2-1.58-4.48-2.29-6.82-3.11-3.59-1.28-7.3-2.19-11-3.26-1.75-.51-3.48-1.09-5.25-1.52-3.38-.83-6.86-1.16-10.22-2.1A22,22,0,0,0,59,72.63a52.88,52.88,0,0,0-7.75.2c-1.53.12-3.14-.29-4.58.72a9.18,9.18,0,0,1-3.48,1.36,5.14,5.14,0,0,0-2.48.92C41.15,76.59,41.39,77.6,42.21,77.88Zm76.61,70.29a3.13,3.13,0,0,1,.5-1,42.81,42.81,0,0,0,3.85-6.67c1.26-2.66,2.29-5.39,3.34-8.12a13.18,13.18,0,0,0,.68-2.24c.29-1.43-1.36-.75-1.72-1.5a2.19,2.19,0,0,0-.38-.6c-.43-.45-1-.68-1.49-.23-1,1-2.59,1.37-3.43,2.49a16.52,16.52,0,0,1-4,4c-1.62,1.08-2.38,3.16-4.47,3.58a70.9,70.9,0,0,1-9.34,8.06c-1.62,1.26-2.25,3.15-3.69,4.52-1.79,1.68-4,3.17-4.65,5.78a1,1,0,0,1-.43.56c-1.48.79-2.1,2.29-2.82,3.63-1.29,2.42-2.47,4.93-3.91,7.21-1.58,2.51-2.33,5.32-3.71,7.89a39.11,39.11,0,0,0-2.7,7.43c-1.1,3.7-2.54,7.28-3,11.17-.4,3-.42,6-1,8.75a10,10,0,0,1,.14,1.15,9.56,9.56,0,0,0-.14,1.17c.13,1.51.8,1.84,2.21,1.28a14.68,14.68,0,0,0,5.65-4.15c2.66-3,4.69-6.45,7.21-9.53,1.46-1.79,2.31-3.93,3.92-5.66a55.8,55.8,0,0,0,5.81-7.45c2.84-4.37,5.84-8.64,8-13.44a21.58,21.58,0,0,1,3.73-6,8.59,8.59,0,0,0,.84-1.69c1.26-2.3,3.13-4.3,3.44-7.06C118.38,150.69,118.48,149.36,118.82,148.17Zm152.52,14c1.19,3.13,2.69,6.12,3.84,9.28a28.39,28.39,0,0,0,4.36,7.55c2.45,3.17,4.94,6.32,7.55,9.35a91.72,91.72,0,0,0,7.78,8.34,103.07,103.07,0,0,1,7.65,8c3.36,3.76,6.26,7.9,10.13,11.25,1.87,1.62,3.92,2.91,5.83,4.42a1.16,1.16,0,0,0,2-.32c.94-1.5,2.4-3,.79-4.9-.17-.2,0-.64-.16-.92-.55-1.32-.53-2.83-1.31-4.06-1.18-1.85-1.69-4-2.95-5.87-1.45-2.13-1.84-4.9-3.78-6.8a1.87,1.87,0,0,1-.54-1.05,7.31,7.31,0,0,0-2.25-3.87,44.94,44.94,0,0,1-3.71-4.78c-1.4-2.08-3-4-4.38-6.12-1.61-2.41-3.92-4.19-5.68-6.45-.84-1.08-2.17-1.72-2.84-2.68-1.2-1.7-2.81-3-3.94-4.75-2.15-3.29-5.3-5.63-8-8.4a6.8,6.8,0,0,0-2.82-1.72,23.07,23.07,0,0,1-5.34-2.46,12.33,12.33,0,0,0-1.84-.77c-1.05,0-2.23,1.54-1.79,2.5C270.71,158.57,270.7,160.42,271.34,162.12Zm-55.08-42.34c-2.27-.54-3.81-2.44-6-3.15s-4.47-1.06-6.55-2.13a2.73,2.73,0,0,0-2.11,0c-.3.11-.57.28-.91.15a15.14,15.14,0,0,0-5.31-1.26c-2.07-.06-4.2-.44-6.32-.6-1.54-.12-3.07.11-4.6.09-1.77,0-3.56-1.09-5.29.22a.45.45,0,0,1-.45,0c-1-1.05-2.25-.29-3.36-.47-3-.5-6,1-9,.15-.26-.07-.61.13-.91.24a19.26,19.26,0,0,1-6.27.88A17.25,17.25,0,0,0,152,116c-.26.13-.59.4-.63.65a8.6,8.6,0,0,1-2.56,5.2c.22,1.53-1.13,2.09-1.95,2.86a15.25,15.25,0,0,0-1.73,2.12c2,.5,4,1,6,1.31,4.62.73,9.34.9,13.9,1.84,5.27,1.08,10.53.74,15.75.41,3.73-.23,7.46-.62,11.21-.78a1.53,1.53,0,0,0,1.11-.33c1.21-1.21,2.93-.89,4.36-1.3,2.93-.84,6-1,8.62-2.92a1.51,1.51,0,0,1,.91-.16,5,5,0,0,0,3.11-1.11c1.65-1.25,3.57-1.64,5.43-2.27.51-.18,1.11-.23,1.43-.77A1,1,0,0,0,216.26,119.78Z" transform="translate(-10.98 -15.06)"/></g></svg>